<?xml version="1.0" encoding="UTF-8" standalone="no"?>
<!-- Generator: Adobe Illustrator 16.0.0, SVG Export Plug-In . SVG Version: 6.00 Build 0)  -->

<svg
   xmlns:dc="http://purl.org/dc/elements/1.1/"
   xmlns:cc="http://creativecommons.org/ns#"
   xmlns:rdf="http://www.w3.org/1999/02/22-rdf-syntax-ns#"
   xmlns:svg="http://www.w3.org/2000/svg"
   xmlns="http://www.w3.org/2000/svg"
   xmlns:sodipodi="http://sodipodi.sourceforge.net/DTD/sodipodi-0.dtd"
   xmlns:inkscape="http://www.inkscape.org/namespaces/inkscape"
   version="1.1"
   id="Layer_1"
   x="0px"
   y="0px"
   width="737"
   height="522"
   viewBox="0 0 737 521.99998"
   enable-background="new 0 0 737.013 520.999"
   xml:space="preserve"
   inkscape:version="0.48.3.1 r9886"
   sodipodi:docname="contacto.svg"><metadata
   id="metadata387"><rdf:RDF><cc:Work
       rdf:about=""><dc:format>image/svg+xml</dc:format><dc:type
         rdf:resource="http://purl.org/dc/dcmitype/StillImage" /></cc:Work></rdf:RDF></metadata><defs
   id="defs385" /><sodipodi:namedview
   pagecolor="#ffffff"
   bordercolor="#666666"
   borderopacity="1"
   objecttolerance="10"
   gridtolerance="10"
   guidetolerance="10"
   inkscape:pageopacity="0"
   inkscape:pageshadow="2"
   inkscape:window-width="1538"
   inkscape:window-height="880"
   id="namedview383"
   showgrid="false"
   fit-margin-top="0"
   fit-margin-left="0"
   fit-margin-right="0"
   fit-margin-bottom="0"
   inkscape:zoom="0.87922465"
   inkscape:cx="324.38661"
   inkscape:cy="256.95379"
   inkscape:window-x="59"
   inkscape:window-y="-3"
   inkscape:window-maximized="1"
   inkscape:current-layer="Layer_1" />




































































<g
   id="g3171"
   transform="matrix(1.0002104,0,0,1.0006192,0,1.5545411e-6)"><g
     transform="translate(0.213,-0.23901154)"
     id="g3">
	<rect
   style="fill:#161615"
   id="rect5"
   height="521.53101"
   width="736.84497"
   y="0.23899999"
   x="-0.213" />
</g><rect
     style="fill:#2d2d2d"
     id="rect7"
     height="200.36501"
     width="202.565"
     y="19.832989"
     x="44.947002" /><rect
     style="fill:#2d2d2d"
     id="rect9"
     height="200.36301"
     width="202.56599"
     y="19.817987"
     x="267.32901" /><rect
     style="fill:#2d2d2d"
     id="rect11"
     height="200.36301"
     width="201.465"
     y="19.802988"
     x="489.71201" /><rect
     style="fill:#2d2d2d"
     id="rect13"
     height="201.467"
     width="202.567"
     y="244.41298"
     x="44.962002" /><rect
     style="fill:#2d2d2d"
     id="rect15"
     height="201.465"
     width="202.565"
     y="244.40099"
     x="267.34402" /><rect
     style="fill:#2d2d2d"
     id="rect17"
     height="201.463"
     width="201.46899"
     y="244.38699"
     x="489.72601" /><g
     transform="translate(0.213,-0.23901154)"
     id="g19">
	<path
   style="fill:#fff806"
   inkscape:connector-curvature="0"
   id="path21"
   d="m 39.078,195.658 -7.721,0 0,-3.434 c 0.002,-0.469 0.169,-0.872 0.507,-1.208 0.337,-0.337 0.741,-0.505 1.207,-0.506 l 0.466,0 c 0.384,0 0.754,0.13 1.109,0.394 0.355,0.262 0.533,0.703 0.53,1.319 l 10e-4,-0.853 c 0,-0.236 0.085,-0.438 0.253,-0.606 0.17,-0.17 0.373,-0.253 0.609,-0.254 h 3.039 v 1.714 h -2.575 c -0.234,0 -0.437,0.085 -0.606,0.255 -0.167,0.169 -0.253,0.371 -0.252,0.605 l 0,0.86 h 3.434 l -10e-4,1.714 z m -4.286,-1.713 0,-0.86 c 0,-0.233 -0.085,-0.435 -0.254,-0.604 -0.17,-0.171 -0.374,-0.256 -0.606,-0.255 l -0.861,0 c -0.234,0 -0.433,0.085 -0.6,0.255 -0.168,0.17 -0.253,0.372 -0.252,0.605 l 0,0.86 h 2.573 z" />
	<path
   style="fill:#fff806"
   inkscape:connector-curvature="0"
   id="path23"
   d="m 31.356,185.363 10e-4,-1.714 4.789,0 c 0.799,0 1.486,0.288 2.065,0.862 0.579,0.574 0.868,1.265 0.867,2.069 l 10e-4,2.216 h -7.723 l -0.001,-1.713 6.861,0 0,-0.861 c 10e-4,-0.238 -0.085,-0.441 -0.253,-0.609 -0.17,-0.167 -0.369,-0.25 -0.6,-0.25 l -6.007,0 z" />
	<path
   style="fill:#fff806"
   inkscape:connector-curvature="0"
   id="path25"
   d="m 39.076,181.936 -7.721,0 0,-3.433 c 0,-0.471 0.169,-0.873 0.507,-1.209 0.337,-0.336 0.74,-0.505 1.205,-0.505 h 0.863 c 0.469,0 0.871,0.169 1.208,0.505 0.336,0.337 0.504,0.74 0.504,1.209 l 0,1.722 h 3.436 l -0.002,1.711 z m -4.287,-1.712 0,-0.861 c 10e-4,-0.234 -0.084,-0.435 -0.254,-0.604 -0.171,-0.171 -0.372,-0.255 -0.604,-0.255 l -0.862,0 c -0.233,0 -0.435,0.084 -0.6,0.255 -0.17,0.17 -0.254,0.372 -0.252,0.606 l -0.002,0.86 h 2.574 z" />
	<path
   style="fill:#fff806"
   inkscape:connector-curvature="0"
   id="path27"
   d="m 39.076,173.363 -6.008,-0.001 -10e-4,0.86 h -0.853 l -0.859,-1.717 0,-0.855 7.721,-0.001 v 1.714 z" />
	<path
   style="fill:#fff806"
   inkscape:connector-curvature="0"
   id="path29"
   d="m 31.355,166.503 -0.001,-1.723 c 0.002,-0.469 0.169,-0.871 0.507,-1.208 0.337,-0.336 0.741,-0.505 1.207,-0.506 l 4.296,0 c 0.464,0 0.864,0.168 1.205,0.504 0.338,0.337 0.508,0.739 0.508,1.21 l 0,1.721 c 0.001,0.469 -0.167,0.871 -0.503,1.208 -0.337,0.335 -0.74,0.504 -1.208,0.504 l -4.295,0 c -0.47,0 -0.873,-0.168 -1.209,-0.505 -0.339,-0.334 -0.507,-0.736 -0.507,-1.205 z m 1.567,-1.707 c -0.47,0.118 -0.708,0.4 -0.708,0.845 0,0.235 0.084,0.438 0.252,0.606 0.168,0.169 0.37,0.254 0.602,0.253 l 2.92,0 -3.066,-1.704 z m 4.576,1.686 c 0.237,-0.043 0.418,-0.135 0.537,-0.276 0.121,-0.141 0.181,-0.331 0.179,-0.565 0.002,-0.238 -0.083,-0.441 -0.252,-0.61 -0.168,-0.167 -0.369,-0.249 -0.598,-0.251 l -2.915,0.001 3.049,1.701 z" />
	<path
   style="fill:#fff806"
   inkscape:connector-curvature="0"
   id="path31"
   d="m 31.354,159.642 v -1.721 c 0,-0.471 0.168,-0.873 0.507,-1.209 0.338,-0.336 0.741,-0.506 1.206,-0.505 h 4.297 c 0.463,0 0.864,0.169 1.204,0.505 0.338,0.337 0.508,0.74 0.509,1.209 l -10e-4,1.722 c 0,0.468 -0.167,0.871 -0.503,1.207 -0.338,0.336 -0.74,0.506 -1.208,0.504 l -4.297,0 c -0.468,10e-4 -0.873,-0.167 -1.208,-0.503 -0.338,-0.338 -0.506,-0.742 -0.506,-1.209 z m 1.569,-1.706 c -0.473,0.118 -0.709,0.399 -0.709,0.844 -10e-4,0.236 0.083,0.439 0.253,0.608 0.166,0.167 0.366,0.253 0.6,0.252 h 2.92 l -3.064,-1.704 z m 4.574,1.685 c 0.237,-0.043 0.418,-0.135 0.538,-0.275 0.12,-0.141 0.18,-0.33 0.18,-0.566 10e-4,-0.239 -0.084,-0.441 -0.252,-0.608 -0.17,-0.167 -0.369,-0.25 -0.6,-0.252 l -2.915,0.002 3.049,1.699 z" />
	<path
   style="fill:#fff806"
   inkscape:connector-curvature="0"
   id="path33"
   d="m 39.075,154.492 -7.722,0.001 10e-4,-4.288 0.858,0 0.002,2.574 h 2.572 l 0,-1.721 0.854,0 0,1.721 3.434,0 v 1.713 z" />
</g><g
     transform="translate(0.213,-0.23901154)"
     id="g35">
	<path
   style="fill:#fff806"
   inkscape:connector-curvature="0"
   id="path37"
   d="M 39.213,67.532 H 31.49 l -10e-4,-4.286 0.859,0 0.002,2.573 2.573,0 10e-4,-1.723 0.853,10e-4 -10e-4,1.722 h 3.436 l 10e-4,1.713 z" />
	<path
   style="fill:#fff806"
   inkscape:connector-curvature="0"
   id="path39"
   d="m 31.49,58.089 v -1.713 l 6.009,0 c 0.464,0 0.865,0.168 1.204,0.506 0.338,0.335 0.51,0.739 0.508,1.208 l 0,1.722 c -10e-4,0.469 -0.167,0.871 -0.504,1.208 -0.335,0.336 -0.738,0.504 -1.207,0.504 l -6.009,0 -0.002,-1.713 6.009,0 c 0.23,0.002 0.431,-0.084 0.6,-0.252 0.166,-0.167 0.252,-0.37 0.253,-0.609 -10e-4,-0.238 -0.085,-0.441 -0.255,-0.609 -0.169,-0.167 -0.369,-0.25 -0.599,-0.25 L 31.49,58.089 z" />
	<path
   style="fill:#fff806"
   inkscape:connector-curvature="0"
   id="path41"
   d="m 31.489,50.377 6.01,-0.001 c 0.568,0 0.996,0.145 1.281,0.431 0.288,0.286 0.431,0.714 0.432,1.283 l -0.001,1.722 c 0,0.568 -0.143,0.996 -0.431,1.282 -0.284,0.288 -0.712,0.431 -1.281,0.431 l -1.724,-10e-4 -10e-4,-1.712 1.723,0 c 0.234,0 0.436,-0.086 0.603,-0.257 0.167,-0.169 0.25,-0.372 0.251,-0.604 0,-0.236 -0.085,-0.439 -0.253,-0.608 C 37.932,52.174 37.733,52.091 37.5,52.09 l -6.01,0 -10e-4,-1.713 z" />
	<path
   style="fill:#fff806"
   inkscape:connector-curvature="0"
   id="path43"
   d="m 39.21,47.801 -7.721,0 10e-4,-1.717 7.721,0 -10e-4,1.717 z" />
</g><g
     transform="translate(0.213,-0.23901154)"
     id="g45">
	<path
   style="fill:#fff806"
   inkscape:connector-curvature="0"
   id="path47"
   d="m 38.969,110.529 -6.01,0 0,0.861 -0.853,0 -0.86,-1.718 0,-0.856 7.721,-0.001 0.002,1.714 z" />
</g><polygon
     transform="translate(0.213,-0.23901154)"
     style="fill:#f9f206"
     id="polygon49"
     points="34.769,129.045 30.48,118 39.058,118 " /><g
     transform="translate(0.213,-0.23901154)"
     id="g51">
	<path
   style="fill:#fff806"
   inkscape:connector-curvature="0"
   id="path53"
   d="M 38.995,25.279 H 36.42 v 3.434 l -0.859,10e-4 -4.287,-3.434 0,-1.714 4.286,0.001 10e-4,-0.861 h 0.861 l -10e-4,0.861 2.573,0 10e-4,1.712 z m -3.435,0.001 -3.217,-0.001 3.216,2.574 0.001,-2.573 z" />
	<path
   style="fill:#fff806"
   inkscape:connector-curvature="0"
   id="path55"
   d="m 38.993,19.279 -6.009,-0.001 10e-4,0.861 h -0.852 l -0.862,-1.717 10e-4,-0.856 h 7.721 l 0,1.713 z" />
	<path
   style="fill:#fff806"
   inkscape:connector-curvature="0"
   id="path57"
   d="m 35.56,10.705 c 0.575,0.061 0.86,0.346 0.86,0.853 l 0,0.86 c -0.001,0.466 -0.168,0.868 -0.504,1.207 -0.337,0.338 -0.74,0.506 -1.209,0.506 l -1.723,0 c -0.465,0 -0.867,-0.168 -1.205,-0.504 -0.338,-0.337 -0.507,-0.739 -0.507,-1.208 l 0,-1.722 c 0,-0.469 0.168,-0.872 0.505,-1.209 0.339,-0.335 0.74,-0.504 1.207,-0.504 l 3.008,-10e-4 c 0.818,10e-4 1.523,0.295 2.115,0.884 0.591,0.59 0.886,1.299 0.885,2.125 l 0.002,1.278 -0.861,-10e-4 0,-0.851 c -0.001,-0.473 -0.168,-0.875 -0.506,-1.21 -0.339,-0.336 -0.741,-0.503 -1.208,-0.503 H 35.56 z m -2.576,1.712 h 1.722 c 0.231,0 0.432,-0.084 0.6,-0.251 0.169,-0.168 0.252,-0.37 0.253,-0.609 0,-0.233 -0.083,-0.436 -0.252,-0.606 -0.17,-0.17 -0.37,-0.257 -0.6,-0.256 h -1.723 c -0.232,0 -0.433,0.086 -0.599,0.256 -0.169,0.169 -0.252,0.372 -0.251,0.605 0,0.236 0.084,0.438 0.253,0.607 0.168,0.17 0.366,0.255 0.597,0.254 z" />
</g><g
     transform="translate(0.213,-0.23901154)"
     id="g59">
	<path
   style="fill:#fff806"
   inkscape:connector-curvature="0"
   id="path61"
   d="m 38.078,418.134 -7.723,0.003 0,-3.436 c -0.001,-0.469 0.167,-0.873 0.508,-1.211 0.338,-0.336 0.738,-0.504 1.205,-0.505 h 0.467 c 0.384,0.002 0.754,0.134 1.108,0.396 0.355,0.266 0.531,0.703 0.531,1.318 l 0,-0.852 c 0.002,-0.236 0.086,-0.439 0.255,-0.607 0.169,-0.168 0.37,-0.255 0.608,-0.255 l 3.04,-0.002 -10e-4,1.715 h -2.575 c -0.235,0 -0.437,0.086 -0.605,0.256 -0.171,0.168 -0.255,0.372 -0.255,0.606 l 0.001,0.859 3.436,-10e-4 0,1.716 z m -4.286,-1.714 -0.001,-0.861 c 0,-0.232 -0.086,-0.436 -0.255,-0.605 -0.171,-0.17 -0.373,-0.253 -0.606,-0.253 h -0.861 c -0.232,0 -0.435,0.085 -0.601,0.255 -0.169,0.17 -0.251,0.373 -0.251,0.605 l 0.001,0.861 2.574,-0.002 z" />
	<path
   style="fill:#fff806"
   inkscape:connector-curvature="0"
   id="path63"
   d="m 30.355,407.84 0,-1.715 4.791,10e-4 c 0.797,-0.002 1.487,0.286 2.065,0.86 0.577,0.573 0.866,1.265 0.867,2.069 l 0,2.217 -7.721,0.003 -10e-4,-1.715 h 6.861 l 0,-0.863 c 0,-0.238 -0.084,-0.439 -0.254,-0.607 -0.168,-0.168 -0.367,-0.252 -0.598,-0.252 l -6.01,0.002 z" />
	<path
   style="fill:#fff806"
   inkscape:connector-curvature="0"
   id="path65"
   d="m 38.079,404.411 -7.723,0.003 0,-3.434 c 0,-0.471 0.167,-0.873 0.506,-1.213 0.337,-0.334 0.741,-0.502 1.208,-0.503 h 0.859 c 0.469,-0.001 0.873,0.167 1.209,0.505 0.336,0.338 0.503,0.74 0.505,1.207 l 0,1.725 3.436,-0.003 0,1.713 z m -4.288,-1.714 -10e-4,-0.859 c 10e-4,-0.234 -0.084,-0.436 -0.254,-0.605 -0.172,-0.17 -0.371,-0.253 -0.605,-0.255 h -0.862 c -0.231,0 -0.435,0.085 -0.601,0.255 -0.167,0.172 -0.25,0.375 -0.253,0.605 l 0.002,0.863 2.574,-0.004 z" />
	<path
   style="fill:#fff806"
   inkscape:connector-curvature="0"
   id="path67"
   d="m 38.077,395.837 -6.01,0.004 0,0.857 -0.852,0.001 -0.86,-1.715 0,-0.859 7.722,-10e-4 v 1.713 z" />
	<path
   style="fill:#fff806"
   inkscape:connector-curvature="0"
   id="path69"
   d="m 30.354,388.977 v -1.719 c 0,-0.469 0.169,-0.873 0.507,-1.211 0.338,-0.336 0.74,-0.504 1.207,-0.507 l 4.295,0.003 c 0.465,-0.002 0.865,0.166 1.203,0.502 0.34,0.337 0.51,0.741 0.511,1.21 l -10e-4,1.721 c 10e-4,0.469 -0.167,0.869 -0.506,1.21 -0.334,0.336 -0.738,0.504 -1.207,0.506 l -4.296,-0.003 c -0.469,0.003 -0.871,-0.167 -1.208,-0.501 -0.337,-0.338 -0.505,-0.741 -0.505,-1.211 z m 1.568,-1.703 c -0.473,0.114 -0.708,0.397 -0.708,0.841 0,0.238 0.085,0.441 0.252,0.609 0.168,0.168 0.367,0.251 0.602,0.253 h 2.92 l -3.066,-1.703 z m 4.574,1.683 c 0.238,-0.043 0.419,-0.135 0.538,-0.277 0.122,-0.141 0.182,-0.33 0.182,-0.564 0,-0.236 -0.085,-0.441 -0.254,-0.607 -0.169,-0.17 -0.367,-0.252 -0.6,-0.252 h -2.916 l 3.05,1.7 z" />
	<path
   style="fill:#fff806"
   inkscape:connector-curvature="0"
   id="path71"
   d="m 30.354,382.117 0.001,-1.721 c -0.001,-0.471 0.167,-0.873 0.506,-1.211 0.335,-0.334 0.737,-0.502 1.205,-0.503 l 4.294,-0.001 c 0.465,-0.002 0.867,0.17 1.207,0.504 0.339,0.335 0.509,0.739 0.51,1.208 l -10e-4,1.723 c 0,0.469 -0.167,0.871 -0.504,1.21 -0.337,0.336 -0.739,0.502 -1.21,0.502 l -4.295,0.003 c -0.469,-0.001 -0.871,-0.169 -1.207,-0.507 -0.338,-0.336 -0.505,-0.738 -0.506,-1.207 z m 1.568,-1.704 c -0.472,0.116 -0.707,0.399 -0.708,0.843 0,0.236 0.084,0.439 0.252,0.607 0.168,0.17 0.369,0.251 0.602,0.255 l 2.92,-0.002 -3.066,-1.703 z m 4.573,1.683 c 0.238,-0.043 0.418,-0.137 0.539,-0.275 0.121,-0.141 0.18,-0.328 0.181,-0.564 0,-0.24 -0.084,-0.443 -0.254,-0.609 -0.168,-0.17 -0.367,-0.252 -0.598,-0.252 h -2.916 l 3.048,1.7 z" />
	<path
   style="fill:#fff806"
   inkscape:connector-curvature="0"
   id="path73"
   d="m 38.076,376.968 -7.723,0.003 -0.001,-4.287 0.861,-0.002 -0.001,2.576 2.575,-0.004 10e-4,-1.721 0.852,0.002 v 1.719 l 3.435,10e-4 10e-4,1.713 z" />
</g><g
     transform="translate(0.213,-0.23901154)"
     id="g75">
	<path
   style="fill:#fff806"
   inkscape:connector-curvature="0"
   id="path77"
   d="m 38.211,290.007 -7.722,0.002 v -4.288 l 0.861,10e-4 v 2.571 l 2.576,10e-4 -0.002,-1.721 0.852,0.002 10e-4,1.719 3.436,-10e-4 -0.002,1.714 z" />
	<path
   style="fill:#fff806"
   inkscape:connector-curvature="0"
   id="path79"
   d="m 30.489,280.566 -0.001,-1.714 6.01,0.001 c 0.463,-0.002 0.865,0.165 1.204,0.501 0.339,0.338 0.507,0.742 0.509,1.21 v 1.72 c 0,0.472 -0.167,0.874 -0.505,1.21 -0.334,0.338 -0.74,0.506 -1.208,0.508 L 30.489,284 l 0,-1.714 6.009,10e-4 c 0.23,-0.003 0.431,-0.085 0.598,-0.253 0.171,-0.166 0.255,-0.37 0.256,-0.608 -10e-4,-0.239 -0.085,-0.441 -0.255,-0.61 -0.168,-0.168 -0.368,-0.251 -0.599,-0.251 l -6.009,10e-4 z" />
	<path
   style="fill:#fff806"
   inkscape:connector-curvature="0"
   id="path81"
   d="m 30.487,272.854 h 6.01 c 0.568,-0.002 0.997,0.141 1.282,0.428 0.288,0.286 0.432,0.714 0.432,1.281 v 1.723 c -10e-4,0.568 -0.143,0.997 -0.431,1.282 -0.285,0.288 -0.715,0.433 -1.282,0.433 L 34.774,278 l 0.002,-1.711 1.722,-10e-4 c 0.234,-0.003 0.435,-0.086 0.6,-0.259 0.168,-0.167 0.252,-0.368 0.253,-0.604 0,-0.235 -0.084,-0.437 -0.252,-0.608 -0.166,-0.167 -0.366,-0.253 -0.6,-0.25 h -6.01 l -0.002,-1.713 z" />
	<path
   style="fill:#fff806"
   inkscape:connector-curvature="0"
   id="path83"
   d="m 38.21,270.277 -7.723,0.001 0,-1.718 h 7.722 l 10e-4,1.717 z" />
</g><g
     transform="translate(0.213,-0.23901154)"
     id="g85">
	<path
   style="fill:#fff806"
   inkscape:connector-curvature="0"
   id="path87"
   d="m 31.96,333.856 0,0.861 c -1.144,-0.134 -1.713,-0.703 -1.714,-1.711 l -10e-4,-1.721 c 0.002,-0.469 0.169,-0.874 0.507,-1.21 0.337,-0.336 0.742,-0.506 1.207,-0.505 l 0.436,-0.002 c 0.592,0.002 1.361,0.556 2.304,1.662 l 0.1,0.111 c 0.948,1.109 1.692,1.663 2.232,1.661 h 0.078 l 0,-3.434 0.861,-10e-4 0,5.148 -0.861,0.001 c -0.592,0 -1.362,-0.554 -2.308,-1.657 l -0.102,-0.117 c -0.942,-1.106 -1.711,-1.66 -2.304,-1.662 l -0.436,0.004 c -0.232,-10e-4 -0.433,0.083 -0.6,0.255 -0.168,0.172 -0.252,0.375 -0.252,0.605 l 0.001,0.859 c -0.001,0.53 0.284,0.815 0.852,0.853 z" />
</g><polygon
     transform="translate(0.213,-0.23901154)"
     style="fill:#f9f206"
     id="polygon89"
     points="33.769,351.048 29.478,340 38.058,340 " /><g
     transform="translate(0.213,-0.23901154)"
     id="g91">
	<path
   style="fill:#fff806"
   inkscape:connector-curvature="0"
   id="path93"
   d="M 37.994,247.753 H 35.42 l 0,3.436 -0.861,0 -4.286,-3.434 -0.001,-1.711 4.287,-0.004 0,-0.859 0.861,-0.001 0,0.861 2.574,-0.002 0,1.714 z m -3.436,0.002 -3.217,0 3.219,2.575 -0.002,-2.575 z" />
	<path
   style="fill:#fff806"
   inkscape:connector-curvature="0"
   id="path95"
   d="m 37.994,241.754 h -6.009 l 0,0.862 -0.854,-0.001 -0.857,-1.718 -0.001,-0.858 7.723,0.002 -0.002,1.713 z" />
	<path
   style="fill:#fff806"
   inkscape:connector-curvature="0"
   id="path97"
   d="m 34.558,233.181 c 0.574,0.059 0.86,0.344 0.861,0.85 v 0.861 c 0,0.466 -0.168,0.868 -0.504,1.208 -0.336,0.336 -0.739,0.506 -1.209,0.506 l -1.721,0 c -0.466,-0.001 -0.869,-0.168 -1.207,-0.506 -0.339,-0.336 -0.505,-0.737 -0.505,-1.208 l -0.001,-1.723 c 0,-0.468 0.169,-0.871 0.507,-1.207 0.337,-0.337 0.74,-0.504 1.206,-0.504 l 3.009,0 c 0.816,-0.001 1.522,0.295 2.113,0.885 0.591,0.589 0.887,1.297 0.887,2.123 v 1.278 h -0.861 l 0.002,-0.853 c -10e-4,-0.474 -0.171,-0.875 -0.508,-1.209 -0.338,-0.336 -0.742,-0.503 -1.208,-0.503 l -0.861,0.002 z m -2.573,1.712 1.721,-0.001 c 0.231,0.003 0.431,-0.081 0.599,-0.25 0.169,-0.167 0.253,-0.369 0.253,-0.608 -0.002,-0.233 -0.085,-0.435 -0.254,-0.606 -0.168,-0.169 -0.368,-0.253 -0.598,-0.255 l -1.723,0 c -0.232,0 -0.434,0.084 -0.6,0.255 -0.169,0.17 -0.253,0.372 -0.252,0.604 0,0.236 0.083,0.44 0.253,0.608 0.17,0.168 0.371,0.255 0.601,0.253 z" />
</g><path
     style="fill:#fff806"
     inkscape:connector-curvature="0"
     id="path99"
     d="m 38.649,466.71699 -7.722,10e-4 v -4.287 h 0.861 l 0,2.574 h 2.574 l -0.001,-1.721 0.854,-0.001 -0.002,1.721 h 3.436 l 0,1.713 z" /><path
     style="fill:#fff806"
     inkscape:connector-curvature="0"
     id="path101"
     d="m 30.926,457.27499 0,-1.711 6.008,-0.004 c 0.465,0.002 0.865,0.169 1.206,0.505 0.34,0.338 0.508,0.74 0.509,1.209 l -10e-4,1.723 c 0.002,0.471 -0.167,0.871 -0.505,1.207 -0.335,0.336 -0.738,0.505 -1.206,0.505 h -6.01 v -1.711 h 6.008 c 0.23,-0.002 0.432,-0.088 0.6,-0.254 0.169,-0.166 0.253,-0.369 0.253,-0.607 0,-0.238 -0.083,-0.443 -0.253,-0.611 -0.169,-0.168 -0.367,-0.25 -0.599,-0.25 h -6.01 z" /><path
     style="fill:#fff806"
     inkscape:connector-curvature="0"
     id="path103"
     d="m 30.926,449.56399 6.008,-0.002 c 0.569,0 0.998,0.142 1.284,0.429 0.286,0.287 0.43,0.717 0.43,1.285 l 0,1.719 c -0.001,0.57 -0.144,0.998 -0.43,1.285 -0.287,0.283 -0.714,0.429 -1.283,0.429 l -1.722,0 v -1.717 l 1.721,0.003 c 0.234,0 0.434,-0.086 0.601,-0.256 0.169,-0.17 0.252,-0.371 0.25,-0.605 0.001,-0.236 -0.082,-0.438 -0.249,-0.605 -0.169,-0.172 -0.369,-0.256 -0.603,-0.254 h -6.009 l 0.002,-1.711 z" /><path
     style="fill:#fff806"
     inkscape:connector-curvature="0"
     id="path105"
     d="m 38.649,446.98899 -7.723,-10e-4 v -1.715 l 7.721,-0.003 0.002,1.719 z" /><g
     transform="translate(0.213,-0.23901154)"
     id="g107">
	<path
   style="fill:#fff806"
   inkscape:connector-curvature="0"
   id="path109"
   d="m 260.556,452.657 -7.722,-10e-4 0,-3.432 c 0,-0.471 0.17,-0.875 0.508,-1.209 0.337,-0.336 0.74,-0.507 1.207,-0.503 h 0.466 c 0.384,-0.003 0.754,0.13 1.108,0.392 0.354,0.264 0.532,0.702 0.531,1.317 l 10e-4,-0.852 c -0.002,-0.234 0.085,-0.438 0.253,-0.607 0.168,-0.168 0.372,-0.254 0.608,-0.252 h 3.039 l -0.001,1.711 -2.574,0.002 c -0.235,-0.002 -0.436,0.086 -0.606,0.254 -0.169,0.17 -0.253,0.373 -0.254,0.607 l 10e-4,0.859 h 3.435 l 0,1.714 z m -4.285,-1.714 -0.002,-0.859 c 10e-4,-0.234 -0.085,-0.438 -0.255,-0.604 -0.17,-0.172 -0.373,-0.258 -0.606,-0.258 l -0.861,0.001 c -0.232,-0.002 -0.434,0.084 -0.599,0.256 -0.168,0.168 -0.252,0.372 -0.253,0.604 l 0.001,0.861 2.575,-0.001 z" />
	<path
   style="fill:#fff806"
   inkscape:connector-curvature="0"
   id="path111"
   d="m 252.833,442.363 0,-1.715 4.79,10e-4 c 0.799,-10e-4 1.488,0.286 2.065,0.863 0.576,0.572 0.867,1.264 0.865,2.068 l 10e-4,2.215 -7.723,10e-4 v -1.713 l 6.863,-0.001 -0.001,-0.861 c -10e-4,-0.238 -0.085,-0.443 -0.253,-0.608 -0.169,-0.168 -0.367,-0.252 -0.599,-0.252 l -6.008,0.002 z" />
	<path
   style="fill:#fff806"
   inkscape:connector-curvature="0"
   id="path113"
   d="m 260.555,438.937 -7.722,-0.001 0,-3.434 c 0,-0.469 0.168,-0.873 0.508,-1.209 0.337,-0.336 0.739,-0.507 1.206,-0.505 l 0.86,-0.001 c 0.469,0.002 0.873,0.17 1.208,0.506 0.337,0.335 0.504,0.739 0.505,1.21 l 0,1.719 3.435,0.002 0,1.713 z m -4.287,-1.714 0.001,-0.859 c 0,-0.234 -0.085,-0.436 -0.257,-0.605 -0.171,-0.172 -0.372,-0.254 -0.605,-0.258 l -0.86,0.003 c -0.233,-0.002 -0.435,0.084 -0.601,0.254 -0.168,0.17 -0.252,0.372 -0.252,0.606 v 0.859 h 2.574 z" />
	<path
   style="fill:#fff806"
   inkscape:connector-curvature="0"
   id="path115"
   d="m 260.554,430.362 h -6.008 l 0,0.861 -0.853,-0.001 -0.862,-1.717 0.001,-0.857 7.722,-0.001 0,1.715 z" />
	<path
   style="fill:#fff806"
   inkscape:connector-curvature="0"
   id="path117"
   d="m 252.832,423.502 0.001,-1.723 c 0,-0.469 0.167,-0.875 0.507,-1.209 0.338,-0.334 0.739,-0.505 1.207,-0.505 l 4.295,-10e-4 c 0.465,0 0.865,0.169 1.202,0.507 0.34,0.336 0.51,0.74 0.51,1.207 v 1.721 c 0,0.473 -0.167,0.875 -0.505,1.211 -0.333,0.336 -0.738,0.505 -1.208,0.503 l -4.295,10e-4 c -0.47,0.002 -0.872,-0.165 -1.208,-0.505 -0.338,-0.338 -0.507,-0.738 -0.506,-1.207 z m 1.569,-1.706 c -0.471,0.119 -0.708,0.399 -0.708,0.845 -0.001,0.234 0.085,0.437 0.253,0.606 0.165,0.168 0.367,0.254 0.6,0.254 h 2.92 l -3.065,-1.705 z m 4.572,1.684 c 0.239,-0.043 0.417,-0.135 0.538,-0.273 0.122,-0.144 0.182,-0.331 0.182,-0.567 0.001,-0.238 -0.085,-0.443 -0.252,-0.608 -0.171,-0.17 -0.37,-0.252 -0.601,-0.254 l -2.916,0.002 3.049,1.7 z" />
	<path
   style="fill:#fff806"
   inkscape:connector-curvature="0"
   id="path119"
   d="m 252.832,416.641 v -1.721 c 0,-0.471 0.169,-0.875 0.507,-1.209 0.337,-0.338 0.741,-0.507 1.206,-0.505 l 4.297,-0.001 c 0.464,0 0.865,0.169 1.203,0.505 0.34,0.338 0.509,0.74 0.51,1.209 l -0.001,1.721 c 0,0.469 -0.167,0.873 -0.505,1.211 -0.335,0.334 -0.738,0.503 -1.207,0.503 l -4.296,-10e-4 c -0.469,0 -0.872,-0.167 -1.208,-0.503 -0.339,-0.338 -0.506,-0.741 -0.506,-1.209 z m 1.568,-1.704 c -0.472,0.117 -0.708,0.399 -0.708,0.843 0,0.238 0.084,0.438 0.253,0.608 0.166,0.168 0.366,0.254 0.601,0.254 l 2.919,-0.002 -3.065,-1.703 z m 4.574,1.682 c 0.239,-0.041 0.417,-0.133 0.538,-0.276 0.121,-0.141 0.182,-0.328 0.182,-0.562 0,-0.238 -0.085,-0.445 -0.254,-0.608 -0.169,-0.17 -0.368,-0.252 -0.6,-0.256 l -2.915,0.004 3.049,1.698 z" />
	<path
   style="fill:#fff806"
   inkscape:connector-curvature="0"
   id="path121"
   d="m 260.553,411.491 -7.723,0.001 10e-4,-4.287 0.86,0.002 0,2.574 2.575,-0.002 10e-4,-1.723 0.851,0.001 v 1.721 h 3.435 l 0,1.713 z" />
</g><g
     transform="translate(0.213,-0.23901154)"
     id="g123">
	<path
   style="fill:#fff806"
   inkscape:connector-curvature="0"
   id="path125"
   d="m 260.688,324.532 -7.723,-10e-4 0.001,-4.285 0.861,0.001 v 2.574 l 2.574,-0.001 -0.001,-1.721 0.854,-0.003 0,1.721 3.435,0.002 -0.001,1.713 z" />
	<path
   style="fill:#fff806"
   inkscape:connector-curvature="0"
   id="path127"
   d="m 252.966,315.09 0.002,-1.717 6.008,0.002 c 0.464,-10e-4 0.865,0.169 1.204,0.507 0.339,0.336 0.509,0.738 0.51,1.209 l -10e-4,1.721 c 0,0.469 -0.167,0.871 -0.505,1.207 -0.334,0.338 -0.74,0.504 -1.208,0.505 h -6.009 l 0,-1.713 h 6.01 c 0.23,0 0.428,-0.082 0.6,-0.251 0.169,-0.168 0.254,-0.369 0.253,-0.609 0,-0.236 -0.085,-0.441 -0.254,-0.607 -0.169,-0.171 -0.367,-0.253 -0.6,-0.253 h -6.01 z" />
	<path
   style="fill:#fff806"
   inkscape:connector-curvature="0"
   id="path129"
   d="m 252.968,307.375 6.007,0.002 c 0.569,-0.003 0.998,0.144 1.283,0.429 0.287,0.287 0.431,0.715 0.433,1.283 l -0.002,1.723 c 10e-4,0.568 -0.143,0.994 -0.43,1.283 -0.287,0.285 -0.715,0.428 -1.282,0.429 l -1.722,-10e-4 -10e-4,-1.715 1.723,0.001 c 0.233,0.002 0.432,-0.084 0.6,-0.253 0.169,-0.172 0.252,-0.371 0.252,-0.605 10e-4,-0.236 -0.084,-0.439 -0.251,-0.607 -0.167,-0.169 -0.367,-0.253 -0.6,-0.255 h -6.01 l 0,-1.714 z" />
	<path
   style="fill:#fff806"
   inkscape:connector-curvature="0"
   id="path131"
   d="m 260.688,304.802 -7.722,-0.001 0,-1.717 7.722,0.003 0,1.715 z" />
</g><g
     transform="translate(0.213,-0.23901154)"
     id="g133">
	<path
   style="fill:#fff806"
   inkscape:connector-curvature="0"
   id="path135"
   d="m 260.448,366.671 -2.575,-0.002 v 3.438 l -0.86,-0.002 -4.286,-3.437 0,-1.711 4.286,-10e-4 0,-0.861 h 0.859 l 10e-4,0.863 2.574,-0.002 10e-4,1.715 z m -3.436,-0.004 -3.216,0.004 3.216,2.57 0,-2.574 z" />
</g><polygon
     transform="translate(0.213,-0.23901154)"
     style="fill:#f9f206"
     id="polygon137"
     points="256.247,386.701 251.958,375.655 260.536,375.653 " /><g
     transform="translate(0.213,-0.23901154)"
     id="g139">
	<path
   style="fill:#fff806"
   inkscape:connector-curvature="0"
   id="path141"
   d="m 260.472,282.278 -2.574,-0.001 0,3.436 -0.861,-0.002 -4.286,-3.434 -0.001,-1.713 4.287,-0.002 0,-0.859 0.86,0.001 0,0.86 2.575,-0.001 v 1.715 z m -3.435,-0.001 -3.216,0.001 3.216,2.571 v -2.572 z" />
	<path
   style="fill:#fff806"
   inkscape:connector-curvature="0"
   id="path143"
   d="m 260.471,276.276 -6.009,10e-4 0,0.859 -0.852,0.002 -0.86,-1.718 -0.001,-0.857 7.722,-0.002 v 1.715 z" />
	<path
   style="fill:#fff806"
   inkscape:connector-curvature="0"
   id="path145"
   d="m 257.037,267.704 c 0.574,0.061 0.862,0.346 0.86,0.853 l -10e-4,0.861 c 10e-4,0.466 -0.167,0.868 -0.501,1.207 -0.337,0.335 -0.74,0.503 -1.21,0.505 l -1.722,-0.002 c -0.467,0.001 -0.867,-0.165 -1.207,-0.502 -0.337,-0.34 -0.504,-0.739 -0.506,-1.208 l 0,-1.723 c 0,-0.468 0.169,-0.874 0.505,-1.208 0.339,-0.335 0.74,-0.503 1.207,-0.505 h 3.008 c 0.818,0 1.523,0.296 2.116,0.885 0.59,0.588 0.888,1.297 0.886,2.123 l 0.001,1.278 -0.861,0.001 0,-0.853 c 0,-0.473 -0.169,-0.874 -0.507,-1.21 -0.338,-0.337 -0.74,-0.504 -1.208,-0.504 l -0.86,0.002 z m -2.575,1.713 1.723,0.001 c 0.229,-0.002 0.429,-0.087 0.599,-0.253 0.169,-0.168 0.254,-0.37 0.252,-0.608 10e-4,-0.234 -0.083,-0.438 -0.251,-0.608 -0.17,-0.169 -0.372,-0.252 -0.6,-0.253 l -1.722,0 c -0.233,0.002 -0.435,0.085 -0.601,0.255 -0.169,0.169 -0.253,0.369 -0.253,0.605 0,0.235 0.084,0.438 0.254,0.604 0.169,0.172 0.368,0.26 0.599,0.257 z" />
</g><g
     transform="translate(0.213,-0.23901154)"
     id="g147">
	<path
   style="fill:#fff806"
   inkscape:connector-curvature="0"
   id="path149"
   d="m 262.573,240.34 h -7.721 l -0.001,-3.435 c 0,-0.47 0.168,-0.871 0.507,-1.207 0.337,-0.336 0.741,-0.506 1.206,-0.503 l 0.467,-0.001 c 0.385,-0.003 0.754,0.13 1.11,0.394 0.355,0.261 0.531,0.702 0.532,1.318 l -10e-4,-0.852 c 0,-0.237 0.086,-0.438 0.254,-0.608 0.168,-0.171 0.373,-0.252 0.609,-0.25 l 3.039,-0.003 0,1.714 H 260 c -0.234,0 -0.437,0.085 -0.605,0.255 -0.17,0.169 -0.254,0.372 -0.253,0.605 l 0,0.861 3.435,-10e-4 -0.004,1.713 z m -4.286,-1.712 0,-0.86 c 0,-0.234 -0.086,-0.437 -0.254,-0.604 -0.172,-0.173 -0.373,-0.256 -0.606,-0.256 l -0.861,0 c -0.231,-0.002 -0.433,0.086 -0.601,0.254 -0.168,0.172 -0.25,0.374 -0.251,0.606 l 0,0.86 h 2.573 z" />
	<path
   style="fill:#fff806"
   inkscape:connector-curvature="0"
   id="path151"
   d="m 254.85,230.045 0.002,-1.712 4.79,-0.001 c 0.798,0 1.485,0.287 2.064,0.863 0.579,0.576 0.868,1.267 0.867,2.069 l 0,2.215 h -7.723 l 0,-1.711 6.863,-0.002 0,-0.859 c 0,-0.239 -0.086,-0.442 -0.254,-0.61 -0.169,-0.167 -0.368,-0.25 -0.599,-0.25 l -6.01,-0.002 z" />
	<path
   style="fill:#fff806"
   inkscape:connector-curvature="0"
   id="path153"
   d="m 262.571,226.619 -7.721,0 0,-3.434 c -0.001,-0.47 0.168,-0.873 0.506,-1.208 0.339,-0.334 0.74,-0.505 1.207,-0.502 l 0.86,-0.002 c 0.469,10e-4 0.872,0.17 1.208,0.505 0.336,0.337 0.504,0.739 0.504,1.208 l 0.001,1.721 3.434,10e-4 0.001,1.711 z m -4.286,-1.713 0,-0.861 c 10e-4,-0.231 -0.084,-0.435 -0.254,-0.604 -0.17,-0.171 -0.373,-0.255 -0.605,-0.255 l -0.862,0.002 c -0.232,-0.002 -0.432,0.084 -0.6,0.253 -0.169,0.169 -0.251,0.372 -0.251,0.604 l 0.001,0.862 2.571,-0.001 z" />
	<path
   style="fill:#fff806"
   inkscape:connector-curvature="0"
   id="path155"
   d="m 262.572,218.045 -6.01,0.001 0,0.861 -0.852,-0.001 -0.86,-1.718 0,-0.857 7.721,0.001 10e-4,1.713 z" />
	<path
   style="fill:#fff806"
   inkscape:connector-curvature="0"
   id="path157"
   d="m 254.848,211.184 10e-4,-1.721 c 0.001,-0.469 0.168,-0.872 0.506,-1.208 0.338,-0.336 0.74,-0.505 1.207,-0.505 l 4.295,-0.001 c 0.465,-0.001 0.865,0.169 1.206,0.505 0.338,0.337 0.508,0.74 0.508,1.209 l 0,1.72 c 0,0.47 -0.167,0.873 -0.504,1.208 -0.337,0.338 -0.739,0.505 -1.208,0.505 l -4.295,0.001 c -0.47,-0.001 -0.872,-0.169 -1.208,-0.504 -0.337,-0.337 -0.506,-0.74 -0.508,-1.209 z m 1.57,-1.705 c -0.471,0.118 -0.708,0.4 -0.707,0.844 0,0.236 0.083,0.439 0.252,0.608 0.167,0.168 0.368,0.253 0.598,0.253 l 2.921,0 -3.064,-1.705 z m 4.573,1.684 c 0.238,-0.042 0.418,-0.134 0.539,-0.274 0.121,-0.142 0.182,-0.329 0.182,-0.565 0,-0.237 -0.084,-0.44 -0.254,-0.609 -0.169,-0.168 -0.368,-0.25 -0.597,-0.251 l -2.916,0.001 3.046,1.698 z" />
	<path
   style="fill:#fff806"
   inkscape:connector-curvature="0"
   id="path159"
   d="m 254.849,204.324 0.001,-1.721 c 0,-0.469 0.168,-0.873 0.506,-1.208 0.338,-0.336 0.74,-0.505 1.206,-0.505 l 4.297,-0.002 c 0.463,0 0.864,0.17 1.203,0.506 0.338,0.336 0.508,0.74 0.51,1.209 l -0.002,1.721 c 0,0.47 -0.167,0.873 -0.503,1.207 -0.338,0.338 -0.741,0.506 -1.208,0.505 l -4.298,0.001 c -0.467,0.001 -0.87,-0.167 -1.208,-0.504 -0.336,-0.338 -0.504,-0.74 -0.504,-1.209 z m 1.568,-1.705 c -0.472,0.117 -0.708,0.398 -0.708,0.844 0,0.235 0.083,0.438 0.252,0.607 0.167,0.168 0.369,0.253 0.6,0.253 l 2.92,0 -3.064,-1.704 z m 4.575,1.684 c 0.238,-0.042 0.418,-0.135 0.537,-0.275 0.121,-0.14 0.181,-0.329 0.183,-0.564 0,-0.238 -0.086,-0.441 -0.255,-0.609 -0.169,-0.168 -0.367,-0.251 -0.598,-0.252 l -2.915,0.001 3.048,1.699 z" />
	<path
   style="fill:#fff806"
   inkscape:connector-curvature="0"
   id="path161"
   d="m 262.57,199.176 h -7.721 l -10e-4,-4.287 0.86,0 0.001,2.573 h 2.574 l -0.001,-1.722 0.854,0.001 10e-4,1.721 h 3.434 l -0.001,1.714 z" />
</g><g
     transform="translate(0.213,-0.23901154)"
     id="g163">
	<path
   style="fill:#fff806"
   inkscape:connector-curvature="0"
   id="path165"
   d="m 262.708,112.213 -7.723,0 -0.001,-4.287 0.859,0.001 0.002,2.574 2.574,0 0.001,-1.722 0.853,0 v 1.722 l 3.434,-0.002 0.001,1.714 z" />
	<path
   style="fill:#fff806"
   inkscape:connector-curvature="0"
   id="path167"
   d="m 254.986,102.772 -10e-4,-1.714 6.009,0 c 0.463,10e-4 0.863,0.169 1.206,0.505 0.338,0.337 0.507,0.738 0.507,1.208 l 0,1.721 c 0.001,0.468 -0.167,0.874 -0.504,1.209 -0.336,0.337 -0.738,0.505 -1.208,0.504 l -6.01,0 v -1.712 l 6.009,-10e-4 c 0.229,0 0.431,-0.084 0.6,-0.25 0.167,-0.168 0.252,-0.372 0.252,-0.611 -10e-4,-0.238 -0.085,-0.441 -0.254,-0.608 -0.169,-0.169 -0.368,-0.251 -0.599,-0.252 l -6.007,0.001 z" />
	<path
   style="fill:#fff806"
   inkscape:connector-curvature="0"
   id="path169"
   d="m 254.984,95.058 6.01,10e-4 c 0.568,0 0.994,0.144 1.281,0.43 0.288,0.288 0.432,0.714 0.432,1.282 l -10e-4,1.721 c 10e-4,0.568 -0.141,0.997 -0.43,1.285 -0.287,0.286 -0.714,0.429 -1.283,0.429 l -1.721,10e-4 -10e-4,-1.713 1.722,-0.001 c 0.233,0 0.433,-0.085 0.601,-0.254 0.168,-0.17 0.251,-0.373 0.251,-0.606 10e-4,-0.235 -0.084,-0.438 -0.252,-0.607 -0.166,-0.17 -0.367,-0.252 -0.6,-0.254 h -6.008 l -0.001,-1.714 z" />
	<path
   style="fill:#fff806"
   inkscape:connector-curvature="0"
   id="path171"
   d="m 262.705,92.484 -7.721,0 v -1.717 l 7.721,0 v 1.717 z" />
</g><g
     transform="translate(0.213,-0.23901154)"
     id="g173">
	<path
   style="fill:#fff806"
   inkscape:connector-curvature="0"
   id="path175"
   d="m 254.743,156.924 0,-5.148 0.859,0.004 1.715,2.571 0,-0.86 c 0,-0.491 0.188,-0.898 0.563,-1.224 0.379,-0.326 0.761,-0.49 1.15,-0.489 l 1.722,-0.001 c 0.468,0 0.873,0.171 1.208,0.509 0.337,0.338 0.504,0.742 0.505,1.205 v 1.721 c -10e-4,1.011 -0.572,1.581 -1.714,1.713 l 0,-0.86 c 0.568,-0.041 0.854,-0.324 0.854,-0.852 l 0,-0.861 c 0,-0.233 -0.084,-0.435 -0.253,-0.605 -0.167,-0.17 -0.367,-0.256 -0.601,-0.256 h -1.721 c -0.135,10e-4 -0.309,0.073 -0.527,0.216 -0.218,0.143 -0.326,0.358 -0.326,0.646 l 10e-4,1.713 -0.86,0 -1.715,-2.573 0.002,3.434 -0.862,-0.003 z" />
</g><polygon
     transform="translate(0.213,-0.23901154)"
     style="fill:#f9f206"
     id="polygon177"
     points="258.265,174.046 253.974,163 262.554,163 " /><g
     transform="translate(0.213,-0.23901154)"
     id="g179">
	<path
   style="fill:#fff806"
   inkscape:connector-curvature="0"
   id="path181"
   d="m 262.491,69.961 -2.575,0 10e-4,3.435 -0.861,-0.001 -4.288,-3.433 0,-1.712 4.286,-0.001 0.001,-0.86 h 0.861 l -10e-4,0.86 2.573,0.001 0.003,1.711 z m -3.436,-0.001 -3.217,0.002 3.216,2.571 0.001,-2.573 z" />
	<path
   style="fill:#fff806"
   inkscape:connector-curvature="0"
   id="path183"
   d="m 262.488,63.961 -6.008,0.001 v 0.86 l -0.853,-0.001 -0.861,-1.717 0.001,-0.856 h 7.721 l 0,1.713 z" />
	<path
   style="fill:#fff806"
   inkscape:connector-curvature="0"
   id="path185"
   d="m 259.055,55.387 c 0.573,0.061 0.861,0.345 0.86,0.853 l 0,0.861 c 0,0.465 -0.169,0.868 -0.505,1.207 -0.336,0.337 -0.738,0.506 -1.209,0.505 l -1.723,0 c -0.466,0 -0.865,-0.168 -1.205,-0.503 -0.338,-0.337 -0.506,-0.741 -0.507,-1.21 v -1.722 c 0,-0.469 0.17,-0.873 0.507,-1.207 0.338,-0.337 0.739,-0.506 1.206,-0.506 l 3.009,0 c 0.818,0 1.523,0.295 2.115,0.883 0.59,0.59 0.886,1.299 0.884,2.125 v 1.28 l -0.859,-0.002 0.002,-0.853 c -0.002,-0.471 -0.171,-0.875 -0.511,-1.208 -0.335,-0.335 -0.736,-0.502 -1.205,-0.503 h -0.859 z m -2.575,1.714 h 1.722 c 0.229,0 0.431,-0.084 0.599,-0.252 0.168,-0.167 0.254,-0.371 0.253,-0.61 0,-0.233 -0.084,-0.433 -0.252,-0.604 -0.168,-0.172 -0.369,-0.256 -0.601,-0.255 l -1.722,-0.001 c -0.231,0 -0.432,0.085 -0.6,0.256 -0.166,0.169 -0.252,0.37 -0.251,0.604 0,0.235 0.084,0.438 0.253,0.607 0.169,0.171 0.369,0.255 0.599,0.255 z" />
</g><path
     style="fill:#fff806"
     inkscape:connector-curvature="0"
     id="path187"
     d="m 260.907,483.05099 -2.573,-0.001 0,3.436 -0.86,10e-4 -4.289,-3.437 v -1.713 l 4.288,10e-4 0,-0.861 0.86,10e-4 0,0.859 2.573,10e-4 10e-4,1.713 z m -3.435,-0.002 -3.217,0.002 3.218,2.572 -0.001,-2.574 z" /><path
     style="fill:#fff806"
     inkscape:connector-curvature="0"
     id="path189"
     d="m 260.907,477.04899 -6.01,0.004 0,0.861 -0.852,-0.002 -0.862,-1.72 0,-0.857 7.722,0.003 0.002,1.711 z" /><path
     style="fill:#fff806"
     inkscape:connector-curvature="0"
     id="path191"
     d="m 257.472,468.47699 c 0.573,0.064 0.861,0.345 0.86,0.853 l 0.001,0.861 c -0.001,0.465 -0.169,0.868 -0.504,1.208 -0.336,0.334 -0.739,0.506 -1.208,0.505 l -1.722,10e-4 c -0.466,0 -0.868,-0.168 -1.208,-0.505 -0.338,-0.338 -0.507,-0.74 -0.505,-1.209 l 0,-1.721 c -0.001,-0.471 0.167,-0.871 0.506,-1.211 0.337,-0.337 0.74,-0.503 1.206,-0.503 h 3.009 c 0.817,-10e-4 1.521,0.294 2.113,0.885 0.592,0.59 0.888,1.297 0.888,2.125 l -0.001,1.275 -0.859,0.002 0,-0.854 c 0,-0.473 -0.17,-0.875 -0.507,-1.21 -0.337,-0.334 -0.74,-0.504 -1.206,-0.504 l -0.863,0.002 z m -2.575,1.715 1.721,-10e-4 c 0.231,-10e-4 0.433,-0.083 0.599,-0.253 0.17,-0.168 0.254,-0.369 0.254,-0.607 0,-0.234 -0.084,-0.438 -0.254,-0.605 -0.168,-0.17 -0.369,-0.256 -0.599,-0.255 l -1.721,-10e-4 c -0.232,0.002 -0.435,0.084 -0.601,0.256 -0.167,0.172 -0.252,0.373 -0.252,0.604 0,0.236 0.084,0.441 0.252,0.609 0.172,0.169 0.372,0.253 0.601,0.253 z" /><rect
     style="fill:#2d2d2d"
     id="rect193"
     height="51.574001"
     width="202.565"
     y="470.10199"
     x="44.973" /><rect
     style="fill:#2d2d2d"
     id="rect195"
     height="51.588001"
     width="202.567"
     y="470.08899"
     x="267.35501" /><g
     transform="translate(0.213,-0.23901154)"
     id="g197">
	<path
   style="fill:#fff806"
   inkscape:connector-curvature="0"
   id="path199"
   d="m 484.029,196.642 -7.721,0.001 v -3.435 c 0,-0.468 0.171,-0.872 0.509,-1.209 0.334,-0.336 0.74,-0.504 1.205,-0.505 l 0.465,0 c 0.385,0 0.754,0.132 1.109,0.395 0.355,0.263 0.53,0.703 0.532,1.32 l 0.001,-0.853 c 0,-0.236 0.084,-0.438 0.254,-0.608 0.17,-0.169 0.371,-0.253 0.607,-0.253 l 3.041,0 -0.001,1.714 -2.574,0 c -0.238,0 -0.438,0.085 -0.607,0.256 -0.168,0.169 -0.254,0.372 -0.255,0.604 l -0.002,0.861 3.438,-0.001 -10e-4,1.713 z m -4.288,-1.712 0.002,-0.861 c -10e-4,-0.235 -0.083,-0.435 -0.255,-0.604 -0.172,-0.171 -0.371,-0.256 -0.607,-0.256 l -0.861,0.001 c -0.23,-0.001 -0.432,0.084 -0.598,0.253 -0.168,0.17 -0.254,0.373 -0.253,0.606 l -0.002,0.86 2.574,0.001 z" />
	<path
   style="fill:#fff806"
   inkscape:connector-curvature="0"
   id="path201"
   d="m 476.311,186.347 -0.003,-1.713 4.789,0 c 0.799,-10e-4 1.49,0.287 2.067,0.862 0.578,0.576 0.865,1.265 0.864,2.069 l 0.004,2.216 h -7.721 l -0.004,-1.712 6.859,-10e-4 v -0.861 c 0,-0.238 -0.083,-0.44 -0.253,-0.609 -0.166,-0.167 -0.369,-0.252 -0.596,-0.251 h -6.006 z" />
	<path
   style="fill:#fff806"
   inkscape:connector-curvature="0"
   id="path203"
   d="m 484.028,182.92 -7.719,0 v -3.433 c -0.001,-0.471 0.167,-0.872 0.505,-1.209 0.337,-0.336 0.741,-0.504 1.206,-0.505 l 0.861,-0.001 c 0.467,0.002 0.871,0.169 1.206,0.506 0.34,0.336 0.508,0.739 0.507,1.208 l -10e-4,1.721 3.436,0 -10e-4,1.713 z m -4.286,-1.712 -0.001,-0.862 c 0.004,-0.233 -0.082,-0.434 -0.252,-0.602 -0.172,-0.171 -0.373,-0.256 -0.607,-0.258 l -0.859,0.002 c -0.232,-0.001 -0.436,0.084 -0.602,0.254 -0.166,0.169 -0.252,0.373 -0.254,0.606 l 0.001,0.86 h 2.574 z" />
	<path
   style="fill:#fff806"
   inkscape:connector-curvature="0"
   id="path205"
   d="m 484.03,174.346 -6.008,0 -0.004,0.861 h -0.852 l -0.858,-1.717 0.002,-0.857 h 7.721 l -0.001,1.713 z" />
	<path
   style="fill:#fff806"
   inkscape:connector-curvature="0"
   id="path207"
   d="m 476.308,167.486 0.003,-1.721 c 0,-0.469 0.165,-0.873 0.501,-1.209 0.34,-0.336 0.742,-0.504 1.209,-0.504 l 4.295,0 c 0.463,-0.001 0.865,0.167 1.201,0.504 0.342,0.337 0.513,0.741 0.513,1.21 l -10e-4,1.721 c -10e-4,0.469 -0.167,0.871 -0.505,1.208 -0.338,0.337 -0.738,0.504 -1.209,0.505 l -4.295,0 c -0.467,0 -0.873,-0.169 -1.209,-0.505 -0.336,-0.336 -0.502,-0.739 -0.503,-1.209 z m 1.567,-1.705 c -0.471,0.117 -0.709,0.399 -0.711,0.844 0.001,0.236 0.087,0.438 0.255,0.607 0.166,0.168 0.367,0.253 0.6,0.254 h 2.92 l -3.064,-1.705 z m 4.572,1.685 c 0.24,-0.043 0.422,-0.136 0.539,-0.276 0.121,-0.14 0.182,-0.33 0.181,-0.565 0.002,-0.238 -0.084,-0.44 -0.252,-0.608 -0.17,-0.168 -0.367,-0.251 -0.6,-0.251 l -2.914,0 3.046,1.7 z" />
	<path
   style="fill:#fff806"
   inkscape:connector-curvature="0"
   id="path209"
   d="m 476.305,160.625 -0.001,-1.721 c 0.004,-0.469 0.172,-0.872 0.509,-1.208 0.34,-0.336 0.742,-0.505 1.209,-0.505 l 4.295,0 c 0.463,0 0.863,0.168 1.201,0.505 0.341,0.337 0.511,0.74 0.509,1.209 l 0.001,1.721 c 10e-4,0.469 -0.167,0.872 -0.505,1.207 -0.335,0.337 -0.737,0.504 -1.206,0.505 l -4.297,0.001 c -0.467,0 -0.871,-0.17 -1.208,-0.506 -0.338,-0.335 -0.506,-0.738 -0.507,-1.208 z m 1.571,-1.705 c -0.473,0.118 -0.71,0.4 -0.71,0.844 0,0.236 0.084,0.439 0.25,0.606 0.17,0.17 0.371,0.255 0.602,0.254 h 2.92 l -3.062,-1.704 z m 4.572,1.685 c 0.236,-0.043 0.42,-0.136 0.537,-0.276 0.121,-0.14 0.184,-0.329 0.184,-0.564 0,-0.238 -0.086,-0.441 -0.253,-0.609 -0.17,-0.167 -0.371,-0.251 -0.602,-0.251 l -2.918,0.001 3.052,1.699 z" />
	<path
   style="fill:#fff806"
   inkscape:connector-curvature="0"
   id="path211"
   d="m 484.029,155.477 -7.721,0.001 0.001,-4.287 0.857,-0.001 v 2.574 l 2.574,-0.001 -0.002,-1.72 0.852,0 0.002,1.721 h 3.436 l 10e-4,1.713 z" />
</g><g
     transform="translate(0.213,-0.23901154)"
     id="g213">
	<path
   style="fill:#fff806"
   inkscape:connector-curvature="0"
   id="path215"
   d="m 484.165,68.518 -7.721,0 -0.002,-4.286 0.861,0.001 10e-4,2.573 h 2.572 l 0.001,-1.721 0.852,0 -10e-4,1.721 h 3.436 l 0.001,1.712 z" />
	<path
   style="fill:#fff806"
   inkscape:connector-curvature="0"
   id="path217"
   d="m 476.444,59.075 -0.003,-1.711 6.008,0 c 0.467,0 0.869,0.167 1.207,0.505 0.338,0.335 0.509,0.739 0.509,1.208 l -0.001,1.722 c 0,0.47 -0.167,0.872 -0.505,1.208 -0.336,0.335 -0.738,0.505 -1.207,0.505 l -6.008,-10e-4 -0.003,-1.713 6.01,0 c 0.23,0 0.43,-0.083 0.6,-0.25 0.17,-0.168 0.254,-0.372 0.253,-0.611 0,-0.239 -0.086,-0.441 -0.254,-0.608 -0.166,-0.168 -0.367,-0.251 -0.598,-0.251 l -6.008,-0.003 z" />
	<path
   style="fill:#fff806"
   inkscape:connector-curvature="0"
   id="path219"
   d="m 476.442,51.363 6.011,-10e-4 c 0.566,10e-4 0.994,0.143 1.279,0.431 0.287,0.286 0.432,0.714 0.431,1.283 l 10e-4,1.721 c -0.002,0.57 -0.144,0.996 -0.429,1.283 -0.285,0.287 -0.715,0.432 -1.283,0.432 l -1.721,0 -10e-4,-1.714 h 1.721 c 0.234,0 0.436,-0.084 0.604,-0.255 0.164,-0.17 0.249,-0.373 0.249,-0.606 -0.002,-0.236 -0.082,-0.438 -0.252,-0.606 -0.166,-0.169 -0.369,-0.255 -0.6,-0.253 l -6.01,0 v -1.715 z" />
	<path
   style="fill:#fff806"
   inkscape:connector-curvature="0"
   id="path221"
   d="m 484.162,48.789 -7.719,0 -10e-4,-1.718 7.721,0 -0.001,1.718 z" />
</g><g
     transform="translate(0.213,-0.23901154)"
     id="g223">
	<path
   style="fill:#fff806"
   inkscape:connector-curvature="0"
   id="path225"
   d="m 476.153,113.228 -0.002,-5.146 0.863,0.003 -0.002,3.431 h 1.721 l 10e-4,-1.721 c 0.002,-0.469 0.169,-0.873 0.505,-1.209 0.338,-0.337 0.742,-0.504 1.217,-0.504 l 1.725,0 c 0.471,-10e-4 0.877,0.169 1.215,0.508 0.334,0.34 0.507,0.741 0.507,1.205 l -0.001,1.722 c -10e-4,1.011 -0.573,1.581 -1.721,1.712 l 0.001,-0.86 c 0.57,-0.042 0.857,-0.324 0.854,-0.853 l 0.002,-0.86 c -0.002,-0.233 -0.085,-0.435 -0.255,-0.606 -0.164,-0.169 -0.367,-0.254 -0.602,-0.254 l -1.727,0 c -0.234,0 -0.436,0.086 -0.604,0.255 -0.17,0.17 -0.255,0.372 -0.255,0.605 l 0.002,2.574 -3.444,-0.002 z" />
</g><polygon
     transform="translate(0.213,-0.23901154)"
     style="fill:#f9f206"
     id="polygon227"
     points="479.724,130.045 475.43,119 484.01,119 " /><g
     transform="translate(0.213,-0.23901154)"
     id="g229">
	<path
   style="fill:#fff806"
   inkscape:connector-curvature="0"
   id="path231"
   d="m 483.947,26.263 -2.574,0 0.001,3.435 -0.859,0 -4.288,-3.435 -0.003,-1.712 4.287,-10e-4 0.003,-0.86 0.859,-0.001 -0.003,0.861 2.574,0 0.003,1.713 z m -3.434,10e-4 h -3.215 l 3.213,2.574 0.002,-2.574 z" />
	<path
   style="fill:#fff806"
   inkscape:connector-curvature="0"
   id="path233"
   d="m 483.947,20.263 -6.01,0 -0.001,0.861 h -0.85 l -0.863,-1.716 V 18.55 l 7.721,-0.001 0.003,1.714 z" />
	<path
   style="fill:#fff806"
   inkscape:connector-curvature="0"
   id="path235"
   d="m 480.509,11.69 c 0.574,0.061 0.859,0.345 0.862,0.851 v 0.861 c -0.004,0.466 -0.169,0.869 -0.505,1.207 -0.34,0.337 -0.738,0.507 -1.207,0.506 l -1.725,0 c -0.465,0 -0.867,-0.167 -1.205,-0.504 -0.338,-0.335 -0.507,-0.738 -0.509,-1.208 l -0.001,-1.722 c 0.004,-0.469 0.171,-0.872 0.511,-1.208 0.336,-0.337 0.74,-0.505 1.207,-0.505 l 3.008,0 c 0.814,0 1.52,0.294 2.111,0.884 0.589,0.59 0.886,1.297 0.889,2.124 l 0.001,1.278 -0.861,-10e-4 -10e-4,-0.853 c 0,-0.472 -0.168,-0.875 -0.509,-1.21 -0.336,-0.335 -0.74,-0.501 -1.207,-0.502 l -0.859,0.002 z m -2.573,1.712 1.723,0 c 0.23,0.001 0.43,-0.084 0.596,-0.251 0.172,-0.167 0.256,-0.371 0.256,-0.609 -0.002,-0.233 -0.085,-0.434 -0.253,-0.604 -0.17,-0.171 -0.371,-0.256 -0.602,-0.256 h -1.723 c -0.23,0 -0.43,0.085 -0.598,0.255 -0.168,0.17 -0.253,0.372 -0.251,0.604 0,0.237 0.084,0.441 0.25,0.608 0.172,0.17 0.374,0.253 0.602,0.253 z" />
</g><g
     transform="translate(0.213,-0.23901154)"
     id="g237">
	<path
   style="fill:#fff806"
   inkscape:connector-curvature="0"
   id="path239"
   d="m 484.049,439.436 -7.723,0.001 v -3.436 c -0.001,-0.467 0.167,-0.869 0.507,-1.207 0.337,-0.339 0.739,-0.505 1.204,-0.503 l 0.467,-0.002 c 0.385,-10e-4 0.752,0.132 1.11,0.396 0.354,0.261 0.531,0.702 0.532,1.315 l -0.001,-0.852 c 0,-0.234 0.084,-0.438 0.255,-0.607 0.168,-0.168 0.369,-0.254 0.607,-0.254 l 3.041,0.002 -0.002,1.713 -2.572,10e-4 c -0.236,-10e-4 -0.439,0.083 -0.611,0.255 -0.166,0.17 -0.252,0.373 -0.254,0.605 l 0.001,0.861 3.438,-0.004 10e-4,1.716 z m -4.29,-1.714 -0.001,-0.859 c 0.002,-0.232 -0.084,-0.434 -0.254,-0.602 -0.17,-0.174 -0.369,-0.258 -0.604,-0.26 l -0.861,0.003 c -0.232,-0.002 -0.436,0.084 -0.602,0.256 -0.168,0.166 -0.252,0.369 -0.254,0.602 l 0.003,0.861 2.573,-0.001 z" />
	<path
   style="fill:#fff806"
   inkscape:connector-curvature="0"
   id="path241"
   d="m 476.326,429.142 10e-4,-1.715 4.791,10e-4 c 0.795,-10e-4 1.484,0.288 2.062,0.863 0.576,0.574 0.868,1.266 0.865,2.068 l 10e-4,2.217 -7.721,-0.001 -10e-4,-1.715 6.861,10e-4 -10e-4,-0.859 c 0,-0.238 -0.084,-0.443 -0.252,-0.611 -0.168,-0.165 -0.369,-0.249 -0.598,-0.249 h -6.008 z" />
	<path
   style="fill:#fff806"
   inkscape:connector-curvature="0"
   id="path243"
   d="m 484.047,425.715 -7.723,-10e-4 v -3.432 c 0.002,-0.471 0.171,-0.873 0.507,-1.211 0.336,-0.335 0.74,-0.505 1.205,-0.505 l 0.861,0.001 c 0.469,0 0.873,0.17 1.209,0.505 0.338,0.336 0.505,0.74 0.505,1.209 l -10e-4,1.721 3.436,-0.002 0.001,1.715 z m -4.288,-1.714 v -0.859 c 10e-4,-0.232 -0.085,-0.438 -0.255,-0.604 -0.17,-0.172 -0.371,-0.258 -0.605,-0.258 l -0.861,0.003 c -0.232,-0.004 -0.434,0.08 -0.6,0.254 -0.168,0.166 -0.254,0.371 -0.253,0.604 V 424 l 2.574,10e-4 z" />
	<path
   style="fill:#fff806"
   inkscape:connector-curvature="0"
   id="path245"
   d="m 484.047,417.141 -6.008,0.002 -0.003,0.861 -0.855,-0.002 -0.854,-1.72 -10e-4,-0.855 7.719,0.003 0.002,1.711 z" />
	<path
   style="fill:#fff806"
   inkscape:connector-curvature="0"
   id="path247"
   d="m 476.327,410.28 -0.002,-1.721 c 0,-0.471 0.168,-0.871 0.506,-1.209 0.337,-0.337 0.739,-0.507 1.206,-0.503 l 4.295,-0.003 c 0.465,0.002 0.865,0.169 1.204,0.505 0.34,0.336 0.51,0.74 0.51,1.211 v 1.719 c 0,0.469 -0.166,0.873 -0.504,1.209 -0.337,0.338 -0.741,0.503 -1.208,0.503 l -4.297,0.001 c -0.469,0.002 -0.869,-0.168 -1.206,-0.501 -0.338,-0.338 -0.508,-0.742 -0.504,-1.211 z m 1.566,-1.706 c -0.473,0.117 -0.708,0.4 -0.708,0.846 0,0.236 0.084,0.438 0.253,0.607 0.168,0.166 0.367,0.252 0.602,0.252 h 2.916 l -3.063,-1.705 z m 4.572,1.687 c 0.238,-0.043 0.422,-0.138 0.538,-0.278 0.121,-0.141 0.182,-0.328 0.184,-0.564 -0.002,-0.236 -0.086,-0.443 -0.254,-0.609 -0.167,-0.165 -0.37,-0.251 -0.601,-0.251 h -2.916 l 3.049,1.702 z" />
	<path
   style="fill:#fff806"
   inkscape:connector-curvature="0"
   id="path249"
   d="m 476.324,403.419 -0.001,-1.723 c 0.001,-0.467 0.167,-0.871 0.505,-1.205 0.34,-0.339 0.741,-0.507 1.208,-0.505 l 4.295,-0.003 c 0.463,0 0.866,0.169 1.202,0.507 0.342,0.336 0.512,0.738 0.513,1.209 l 0.001,1.721 c -0.002,0.469 -0.169,0.871 -0.505,1.207 -0.336,0.338 -0.74,0.503 -1.211,0.503 l -4.291,0.005 c -0.469,-0.004 -0.875,-0.17 -1.211,-0.505 -0.336,-0.338 -0.505,-0.742 -0.505,-1.211 z m 1.569,-1.706 c -0.473,0.119 -0.709,0.4 -0.711,0.846 -0.002,0.234 0.087,0.436 0.257,0.605 0.166,0.17 0.369,0.254 0.6,0.258 l 2.92,-0.002 -3.066,-1.707 z m 4.573,1.684 c 0.238,-0.043 0.42,-0.136 0.535,-0.274 0.125,-0.141 0.181,-0.33 0.183,-0.564 0,-0.24 -0.084,-0.443 -0.254,-0.609 -0.17,-0.167 -0.369,-0.251 -0.598,-0.253 l -2.918,0.004 3.052,1.696 z" />
	<path
   style="fill:#fff806"
   inkscape:connector-curvature="0"
   id="path251"
   d="m 484.044,398.27 -7.721,0.001 -0.003,-4.285 0.859,-10e-4 0.002,2.572 2.574,10e-4 10e-4,-1.719 0.852,-10e-4 -10e-4,1.721 3.434,-0.002 0.003,1.713 z" />
</g><g
     transform="translate(0.213,-0.23901154)"
     id="g253">
	<path
   style="fill:#fff806"
   inkscape:connector-curvature="0"
   id="path255"
   d="m 484.181,311.314 -7.721,-0.005 -10e-4,-4.287 0.861,0.003 -0.002,2.572 h 2.576 l -0.001,-1.721 h 0.852 l 10e-4,1.721 3.434,0.002 10e-4,1.715 z" />
	<path
   style="fill:#fff806"
   inkscape:connector-curvature="0"
   id="path257"
   d="m 476.456,301.868 10e-4,-1.713 h 6.01 c 0.463,-10e-4 0.867,0.167 1.206,0.505 0.34,0.338 0.506,0.74 0.508,1.211 l 0.002,1.721 c -0.002,0.471 -0.168,0.871 -0.508,1.205 -0.335,0.338 -0.739,0.506 -1.208,0.507 l -6.008,-0.002 -10e-4,-1.713 6.01,0.002 c 0.23,-0.002 0.432,-0.087 0.597,-0.255 0.17,-0.164 0.256,-0.367 0.256,-0.607 0.002,-0.236 -0.086,-0.441 -0.256,-0.609 -0.169,-0.17 -0.368,-0.251 -0.599,-0.251 h -6.01 z" />
	<path
   style="fill:#fff806"
   inkscape:connector-curvature="0"
   id="path259"
   d="m 476.458,294.155 6.01,0.002 c 0.568,-0.003 0.994,0.142 1.281,0.429 0.288,0.287 0.429,0.715 0.429,1.283 v 1.723 c 0.002,0.568 -0.141,0.996 -0.428,1.281 -0.289,0.287 -0.716,0.43 -1.286,0.431 l -1.721,-10e-4 0.002,-1.715 1.721,10e-4 c 0.234,0 0.434,-0.085 0.602,-0.255 0.168,-0.17 0.25,-0.373 0.252,-0.605 0,-0.236 -0.085,-0.439 -0.253,-0.607 -0.166,-0.168 -0.367,-0.255 -0.6,-0.253 h -6.01 l 0.001,-1.714 z" />
	<path
   style="fill:#fff806"
   inkscape:connector-curvature="0"
   id="path261"
   d="m 484.179,291.582 -7.721,-0.003 -0.001,-1.717 7.719,0.003 0.003,1.717 z" />
</g><g
     transform="translate(0.213,-0.23901154)"
     id="g263">
	<path
   style="fill:#fff806"
   inkscape:connector-curvature="0"
   id="path265"
   d="m 479.65,354.308 c -0.287,-0.033 -0.504,-0.125 -0.646,-0.266 -0.144,-0.146 -0.216,-0.344 -0.214,-0.594 l 0.002,-0.863 c -10e-4,-0.467 0.167,-0.871 0.503,-1.205 0.337,-0.336 0.739,-0.507 1.208,-0.505 l 1.721,-10e-4 c 0.467,-0.002 0.865,0.169 1.206,0.505 0.34,0.336 0.51,0.74 0.511,1.207 l -10e-4,1.723 c 0,0.469 -0.172,0.871 -0.511,1.207 -0.338,0.338 -0.74,0.505 -1.201,0.505 l -3.01,0.002 c -0.82,10e-4 -1.525,-0.296 -2.118,-0.888 -0.586,-0.591 -0.884,-1.294 -0.882,-2.112 l -0.001,-1.287 0.859,-10e-4 10e-4,0.854 c 0,0.473 0.168,0.879 0.504,1.213 0.341,0.336 0.741,0.508 1.208,0.507 h 0.861 z m 2.577,-1.719 -1.723,-10e-4 c -0.232,0 -0.436,0.082 -0.604,0.254 -0.166,0.171 -0.25,0.372 -0.25,0.606 0,0.234 0.082,0.438 0.249,0.606 0.168,0.168 0.369,0.252 0.602,0.254 l 1.725,-10e-4 c 0.229,0 0.43,-0.084 0.598,-0.253 0.169,-0.166 0.253,-0.369 0.251,-0.607 0.002,-0.238 -0.082,-0.443 -0.252,-0.611 -0.17,-0.165 -0.367,-0.249 -0.596,-0.247 z" />
</g><polygon
     transform="translate(0.213,-0.23901154)"
     style="fill:#f9f206"
     id="polygon267"
     points="479.739,373.044 475.446,362 484.028,362 " /><g
     transform="translate(0.213,-0.23901154)"
     id="g269">
	<path
   style="fill:#fff806"
   inkscape:connector-curvature="0"
   id="path271"
   d="m 483.963,269.059 -2.574,-0.003 -0.002,3.436 -0.859,-0.001 -4.285,-3.433 -0.002,-1.714 4.287,-10e-4 -0.002,-0.859 0.861,0 v 0.86 l 2.574,0.001 0.002,1.714 z m -3.433,-0.002 h -3.217 l 3.216,2.572 10e-4,-2.572 z" />
	<path
   style="fill:#fff806"
   inkscape:connector-curvature="0"
   id="path273"
   d="m 483.963,263.057 -6.01,10e-4 v 0.861 l -0.852,-0.002 -0.86,-1.717 -10e-4,-0.855 7.721,10e-4 0.002,1.711 z" />
	<path
   style="fill:#fff806"
   inkscape:connector-curvature="0"
   id="path275"
   d="m 480.528,254.482 c 0.574,0.06 0.859,0.346 0.859,0.853 l 10e-4,0.861 c 0.002,0.465 -0.168,0.866 -0.505,1.208 -0.336,0.334 -0.738,0.506 -1.209,0.504 l -1.723,0 c -0.465,0 -0.867,-0.167 -1.205,-0.504 -0.335,-0.337 -0.507,-0.737 -0.503,-1.207 l -0.003,-1.722 c 10e-4,-0.47 0.167,-0.872 0.505,-1.208 0.339,-0.336 0.741,-0.507 1.206,-0.504 l 3.01,-0.001 c 0.816,0 1.521,0.296 2.11,0.887 0.594,0.587 0.892,1.298 0.888,2.124 l 0.003,1.279 -0.861,-0.001 0.002,-0.854 c -0.003,-0.471 -0.167,-0.876 -0.509,-1.211 -0.336,-0.335 -0.742,-0.502 -1.207,-0.502 l -0.859,-0.002 z m -2.573,1.715 1.721,-10e-4 c 0.232,0.002 0.432,-0.084 0.599,-0.25 0.17,-0.169 0.254,-0.374 0.256,-0.611 -0.002,-0.233 -0.086,-0.437 -0.256,-0.603 -0.168,-0.173 -0.369,-0.258 -0.6,-0.257 l -1.721,0 c -0.234,0.001 -0.434,0.084 -0.6,0.255 -0.17,0.169 -0.256,0.371 -0.254,0.604 -0.002,0.236 0.082,0.437 0.254,0.607 0.173,0.17 0.37,0.255 0.601,0.256 z" />
</g><path
     style="fill:#fff806"
     inkscape:connector-curvature="0"
     id="path277"
     d="m 483.094,482.43099 -7.721,0.004 0.001,-4.287 0.857,-10e-4 0.002,2.574 2.574,-0.002 -0.001,-1.719 h 0.852 l 10e-4,1.721 3.438,-0.003 -0.003,1.713 z" /><path
     style="fill:#fff806"
     inkscape:connector-curvature="0"
     id="path279"
     d="m 475.373,472.99099 -10e-4,-1.713 6.006,-0.002 c 0.465,0.001 0.867,0.167 1.205,0.507 0.341,0.336 0.513,0.737 0.511,1.206 l 0.001,1.721 c -0.003,0.471 -0.169,0.872 -0.507,1.212 -0.335,0.336 -0.737,0.502 -1.206,0.503 h -6.008 l -0.002,-1.711 6.008,-0.002 c 0.23,0 0.432,-0.085 0.6,-0.251 0.168,-0.168 0.252,-0.371 0.252,-0.611 0.002,-0.238 -0.082,-0.439 -0.252,-0.607 -0.169,-0.168 -0.368,-0.251 -0.599,-0.251 h -6.008 z" /><path
     style="fill:#fff806"
     inkscape:connector-curvature="0"
     id="path281"
     d="m 475.372,465.28099 6.008,-0.004 c 0.57,10e-4 0.996,0.144 1.283,0.431 0.287,0.289 0.431,0.714 0.431,1.282 l -10e-4,1.721 c 10e-4,0.566 -0.142,0.997 -0.431,1.284 -0.284,0.285 -0.712,0.432 -1.282,0.431 l -1.723,10e-4 v -1.715 l 1.723,-0.001 c 0.232,0.002 0.434,-0.085 0.602,-0.255 0.168,-0.17 0.252,-0.375 0.252,-0.607 0,-0.232 -0.084,-0.436 -0.253,-0.604 -0.168,-0.17 -0.365,-0.255 -0.6,-0.255 l -6.008,0.004 -10e-4,-1.713 z" /><path
     style="fill:#fff806"
     inkscape:connector-curvature="0"
     id="path283"
     d="m 483.092,462.70199 -7.723,-0.002 0.003,-1.713 7.721,-0.002 -0.001,1.717 z" /><g
     transform="translate(0.213,-0.23901154)"
     id="g285">
	<path
   style="fill:#fff806"
   inkscape:connector-curvature="0"
   id="path287"
   d="m 709.554,207.8 -7.721,10e-4 v -3.434 c -0.003,-0.471 0.167,-0.872 0.505,-1.209 0.34,-0.335 0.74,-0.503 1.207,-0.504 l 0.467,0 c 0.385,0 0.752,0.132 1.109,0.395 0.354,0.264 0.531,0.702 0.532,1.321 l -10e-4,-0.854 c 0,-0.236 0.082,-0.439 0.256,-0.607 0.166,-0.169 0.369,-0.253 0.605,-0.255 h 3.039 l 0.003,1.714 -2.574,0.003 c -0.236,-0.001 -0.439,0.082 -0.609,0.253 -0.17,0.17 -0.254,0.373 -0.252,0.607 l -10e-4,0.86 3.434,0.001 10e-4,1.708 z m -4.286,-1.712 10e-4,-0.86 c -0.004,-0.233 -0.09,-0.435 -0.258,-0.604 -0.17,-0.173 -0.369,-0.255 -0.604,-0.256 l -0.861,0 c -0.23,0.001 -0.436,0.086 -0.604,0.256 -0.166,0.17 -0.252,0.373 -0.25,0.605 l -10e-4,0.861 2.577,-0.002 z" />
	<path
   style="fill:#fff806"
   inkscape:connector-curvature="0"
   id="path289"
   d="m 701.833,197.505 -0.003,-1.712 4.793,0.001 c 0.799,0 1.488,0.287 2.066,0.863 0.575,0.575 0.864,1.262 0.865,2.067 l -0.003,2.217 h -7.721 l 10e-4,-1.712 h 6.863 l -0.002,-0.861 c 0.003,-0.239 -0.083,-0.442 -0.255,-0.611 -0.168,-0.167 -0.365,-0.25 -0.596,-0.25 l -6.008,-0.002 z" />
	<path
   style="fill:#fff806"
   inkscape:connector-curvature="0"
   id="path291"
   d="m 709.553,194.079 -7.721,0.002 -10e-4,-3.435 c -0.002,-0.47 0.172,-0.873 0.507,-1.208 0.338,-0.335 0.738,-0.506 1.203,-0.504 l 0.863,-0.001 c 0.467,0 0.873,0.169 1.211,0.507 0.337,0.336 0.501,0.738 0.503,1.208 l -0.001,1.721 h 3.434 l 0.002,1.71 z m -4.287,-1.711 v -0.862 c 0,-0.232 -0.082,-0.436 -0.252,-0.604 -0.175,-0.172 -0.376,-0.254 -0.608,-0.255 l -0.861,0 c -0.232,0 -0.434,0.086 -0.599,0.254 -0.168,0.17 -0.254,0.372 -0.254,0.606 l -0.002,0.861 2.576,0 z" />
	<path
   style="fill:#fff806"
   inkscape:connector-curvature="0"
   id="path293"
   d="m 709.553,185.506 h -6.01 l -0.002,0.86 h -0.85 l -0.86,-1.717 -10e-4,-0.857 h 7.721 l 0.002,1.714 z" />
	<path
   style="fill:#fff806"
   inkscape:connector-curvature="0"
   id="path295"
   d="m 701.832,178.646 10e-4,-1.723 c -0.003,-0.468 0.165,-0.872 0.507,-1.208 0.338,-0.336 0.737,-0.505 1.204,-0.504 l 4.295,-0.001 c 0.465,0 0.866,0.167 1.206,0.506 0.336,0.335 0.508,0.738 0.509,1.208 l -10e-4,1.721 c 0,0.469 -0.167,0.872 -0.505,1.208 -0.336,0.336 -0.74,0.505 -1.207,0.504 l -4.297,0.001 c -0.469,0 -0.869,-0.167 -1.205,-0.505 -0.339,-0.335 -0.509,-0.739 -0.507,-1.207 z m 1.569,-1.706 c -0.473,0.118 -0.709,0.4 -0.709,0.845 -0.002,0.235 0.083,0.438 0.253,0.606 0.166,0.17 0.367,0.254 0.6,0.255 l 2.92,-10e-4 -3.064,-1.705 z m 4.571,1.685 c 0.238,-0.042 0.418,-0.135 0.539,-0.274 0.119,-0.141 0.181,-0.331 0.181,-0.566 0,-0.238 -0.086,-0.441 -0.254,-0.609 -0.168,-0.168 -0.365,-0.251 -0.598,-0.251 h -2.914 l 3.046,1.7 z" />
	<path
   style="fill:#fff806"
   inkscape:connector-curvature="0"
   id="path297"
   d="m 701.829,171.784 0.001,-1.721 c 0,-0.469 0.171,-0.871 0.509,-1.209 0.338,-0.335 0.738,-0.505 1.205,-0.504 l 4.295,0 c 0.463,0 0.867,0.168 1.203,0.505 0.342,0.337 0.511,0.739 0.511,1.208 l 10e-4,1.721 c -0.004,0.469 -0.169,0.871 -0.505,1.209 -0.336,0.335 -0.74,0.504 -1.209,0.504 l -4.297,0 c -0.467,0 -0.869,-0.167 -1.207,-0.505 -0.336,-0.336 -0.507,-0.739 -0.507,-1.208 z m 1.571,-1.705 c -0.473,0.118 -0.711,0.4 -0.708,0.845 0,0.236 0.084,0.438 0.25,0.606 0.168,0.17 0.369,0.254 0.602,0.255 l 2.92,-0.001 -3.064,-1.705 z m 4.571,1.685 c 0.24,-0.042 0.418,-0.135 0.537,-0.275 0.125,-0.142 0.186,-0.33 0.184,-0.565 -10e-4,-0.238 -0.087,-0.44 -0.253,-0.609 -0.17,-0.168 -0.369,-0.25 -0.6,-0.251 l -2.918,0 3.05,1.7 z" />
	<path
   style="fill:#fff806"
   inkscape:connector-curvature="0"
   id="path299"
   d="m 709.552,166.636 -7.723,0 0.003,-4.286 0.859,0 10e-4,2.573 h 2.574 l -10e-4,-1.722 0.85,0.001 0.003,1.721 3.434,-0.001 v 1.714 z" />
</g><g
     transform="translate(0.213,-0.23901154)"
     id="g301">
	<path
   style="fill:#fff806"
   inkscape:connector-curvature="0"
   id="path303"
   d="m 709.688,79.677 -7.723,-0.001 -10e-4,-4.287 h 0.859 l 0.004,2.575 2.574,0 -10e-4,-1.722 h 0.854 l 10e-4,1.721 3.434,0.001 -10e-4,1.713 z" />
	<path
   style="fill:#fff806"
   inkscape:connector-curvature="0"
   id="path305"
   d="m 701.965,70.235 0.002,-1.714 h 6.008 c 0.463,-0.001 0.866,0.167 1.204,0.504 0.336,0.337 0.51,0.741 0.509,1.209 l 10e-4,1.722 c -0.002,0.468 -0.169,0.871 -0.503,1.208 -0.338,0.336 -0.742,0.504 -1.213,0.504 l -6.008,0 0.003,-1.712 6.006,-0.001 c 0.232,0.001 0.432,-0.083 0.602,-0.25 0.166,-0.168 0.251,-0.371 0.253,-0.61 0,-0.238 -0.084,-0.441 -0.254,-0.609 -0.172,-0.167 -0.369,-0.25 -0.6,-0.25 l -6.01,-0.001 z" />
	<path
   style="fill:#fff806"
   inkscape:connector-curvature="0"
   id="path307"
   d="m 701.965,62.521 6.01,-0.002 c 0.568,0.002 0.992,0.144 1.282,0.432 0.287,0.287 0.43,0.716 0.431,1.284 l -10e-4,1.721 c 0.002,0.568 -0.145,0.995 -0.431,1.282 -0.287,0.288 -0.713,0.432 -1.281,0.43 l -1.721,0 -10e-4,-1.712 1.721,0 c 0.234,0 0.434,-0.084 0.603,-0.254 0.168,-0.17 0.25,-0.373 0.252,-0.605 -0.002,-0.236 -0.086,-0.438 -0.252,-0.607 -0.168,-0.169 -0.367,-0.254 -0.602,-0.254 l -6.01,0.002 v -1.717 z" />
	<path
   style="fill:#fff806"
   inkscape:connector-curvature="0"
   id="path309"
   d="m 709.689,59.947 h -7.724 l 0.003,-1.717 7.721,0 v 1.717 z" />
</g><g
     transform="translate(0.213,-0.23901154)"
     id="g311">
	<path
   style="fill:#fff806"
   inkscape:connector-curvature="0"
   id="path313"
   d="m 701.724,124.386 10e-4,-5.147 h 1.711 l 0.863,0.434 0.859,0.427 c 1.202,0.573 2.06,0.861 2.573,0.86 l 1.713,-10e-4 0.003,1.715 h -1.717 c -0.572,0 -1.432,-0.288 -2.572,-0.861 l -1.722,-0.854 -0.854,0.002 v 3.427 l -0.858,-0.002 z" />
</g><polygon
     transform="translate(0.213,-0.23901154)"
     style="fill:#f9f206"
     id="polygon315"
     points="705.244,141.045 700.955,130 709.535,130 " /><g
     transform="translate(0.213,-0.23901154)"
     id="g317">
	<path
   style="fill:#fff806"
   inkscape:connector-curvature="0"
   id="path319"
   d="m 709.47,37.423 -2.574,10e-4 v 3.435 l -0.861,0 -4.289,-3.435 0.005,-1.714 4.287,10e-4 -0.003,-0.861 0.861,0 0.005,0.861 2.572,-10e-4 -0.003,1.713 z m -3.437,0 -3.215,0 3.219,2.574 -0.004,-2.574 z" />
	<path
   style="fill:#fff806"
   inkscape:connector-curvature="0"
   id="path321"
   d="m 709.47,31.423 -6.008,0 v 0.859 h -0.854 l -0.862,-1.716 0.002,-0.857 7.723,-0.001 -10e-4,1.715 z" />
	<path
   style="fill:#fff806"
   inkscape:connector-curvature="0"
   id="path323"
   d="m 706.031,22.85 c 0.576,0.061 0.863,0.345 0.863,0.852 l 10e-4,0.861 c 0,0.466 -0.169,0.868 -0.503,1.207 -0.338,0.338 -0.74,0.506 -1.209,0.505 l -1.723,0.001 c -0.465,0.001 -0.867,-0.167 -1.207,-0.505 -0.338,-0.335 -0.509,-0.739 -0.507,-1.208 l 10e-4,-1.722 c 0.001,-0.469 0.169,-0.872 0.509,-1.208 0.332,-0.336 0.736,-0.505 1.207,-0.505 l 3.01,0 c 0.814,0 1.516,0.294 2.109,0.885 0.593,0.589 0.886,1.297 0.889,2.124 l -0.003,1.278 h -0.859 l 0.003,-0.852 c 0,-0.472 -0.173,-0.875 -0.511,-1.211 -0.338,-0.335 -0.74,-0.502 -1.207,-0.501 h -0.863 z m -2.572,1.713 1.723,-10e-4 c 0.23,0 0.43,-0.083 0.6,-0.252 0.17,-0.167 0.25,-0.369 0.253,-0.607 -0.002,-0.234 -0.086,-0.437 -0.252,-0.607 -0.17,-0.169 -0.373,-0.254 -0.602,-0.254 l -1.721,0.001 c -0.234,-0.002 -0.436,0.084 -0.602,0.255 -0.168,0.169 -0.254,0.371 -0.252,0.604 -10e-4,0.235 0.087,0.438 0.255,0.606 0.169,0.17 0.368,0.253 0.598,0.255 z" />
</g><g
     transform="translate(0.213,-0.23901154)"
     id="g325">
	<path
   style="fill:#fff806"
   inkscape:connector-curvature="0"
   id="path327"
   d="m 707.54,445.515 -7.721,0.003 v -3.434 c -10e-4,-0.471 0.167,-0.873 0.509,-1.211 0.336,-0.335 0.738,-0.503 1.203,-0.503 l 0.467,-10e-4 c 0.385,0 0.756,0.133 1.109,0.395 0.355,0.263 0.533,0.702 0.532,1.319 l -10e-4,-0.854 c -0.002,-0.234 0.084,-0.438 0.256,-0.609 0.168,-0.166 0.367,-0.25 0.605,-0.25 l 3.041,-0.002 -10e-4,1.713 -2.574,10e-4 c -0.234,0 -0.439,0.085 -0.607,0.255 -0.168,0.172 -0.252,0.373 -0.254,0.607 l 10e-4,0.861 3.436,-0.002 -0.001,1.712 z m -4.289,-1.714 -10e-4,-0.861 c 0.002,-0.232 -0.084,-0.432 -0.254,-0.602 -0.172,-0.17 -0.369,-0.256 -0.605,-0.256 l -0.859,0.003 c -0.232,-0.002 -0.436,0.082 -0.6,0.252 -0.17,0.17 -0.254,0.371 -0.254,0.605 l -10e-4,0.859 2.574,0 z" />
	<path
   style="fill:#fff806"
   inkscape:connector-curvature="0"
   id="path329"
   d="m 699.82,435.223 -0.001,-1.711 4.791,-0.003 c 0.797,-0.003 1.484,0.286 2.064,0.859 0.575,0.576 0.864,1.266 0.865,2.07 l -0.003,2.215 -7.719,0.003 -10e-4,-1.711 6.861,-0.005 0.002,-0.859 c -10e-4,-0.238 -0.087,-0.443 -0.253,-0.609 -0.17,-0.166 -0.369,-0.249 -0.598,-0.249 h -6.008 z" />
	<path
   style="fill:#fff806"
   inkscape:connector-curvature="0"
   id="path331"
   d="m 707.539,431.794 -7.723,0.001 0.003,-3.434 c -0.002,-0.469 0.168,-0.871 0.507,-1.211 0.338,-0.335 0.738,-0.501 1.203,-0.503 l 0.861,-10e-4 c 0.469,0 0.875,0.168 1.209,0.507 0.337,0.336 0.507,0.74 0.507,1.207 l -10e-4,1.723 3.436,-0.002 -0.002,1.713 z m -4.288,-1.714 v -0.861 c 0,-0.234 -0.085,-0.432 -0.253,-0.604 -0.172,-0.17 -0.373,-0.254 -0.607,-0.254 l -0.859,-10e-4 c -0.234,0 -0.436,0.086 -0.602,0.254 -0.168,0.17 -0.251,0.373 -0.253,0.605 v 0.861 l 2.574,0 z" />
	<path
   style="fill:#fff806"
   inkscape:connector-curvature="0"
   id="path333"
   d="m 707.541,423.222 h -6.008 l -0.004,0.861 -0.854,-0.002 -0.858,-1.716 -0.002,-0.857 7.723,-10e-4 0.003,1.715 z" />
	<path
   style="fill:#fff806"
   inkscape:connector-curvature="0"
   id="path335"
   d="m 699.819,416.363 -10e-4,-1.725 c -10e-4,-0.469 0.167,-0.871 0.505,-1.209 0.338,-0.337 0.74,-0.505 1.207,-0.505 l 4.295,0.001 c 0.465,-0.001 0.865,0.169 1.205,0.503 0.338,0.336 0.508,0.74 0.509,1.211 l 10e-4,1.721 c 0,0.469 -0.168,0.873 -0.505,1.207 -0.34,0.334 -0.74,0.504 -1.209,0.505 l -4.297,10e-4 c -0.469,0 -0.871,-0.168 -1.205,-0.505 -0.339,-0.336 -0.507,-0.736 -0.505,-1.205 z m 1.565,-1.71 c -0.471,0.117 -0.709,0.4 -0.707,0.846 10e-4,0.236 0.085,0.438 0.253,0.607 0.166,0.168 0.369,0.256 0.6,0.254 h 2.92 l -3.066,-1.707 z m 4.575,1.687 c 0.236,-0.045 0.418,-0.136 0.537,-0.276 0.121,-0.141 0.182,-0.328 0.183,-0.564 -0.002,-0.238 -0.086,-0.441 -0.254,-0.611 -0.168,-0.166 -0.369,-0.247 -0.602,-0.247 l -2.914,-0.004 3.05,1.702 z" />
	<path
   style="fill:#fff806"
   inkscape:connector-curvature="0"
   id="path337"
   d="m 699.818,409.502 -0.003,-1.723 c 0.002,-0.469 0.167,-0.873 0.505,-1.209 0.34,-0.335 0.742,-0.505 1.209,-0.503 l 4.297,-0.003 c 0.463,-0.001 0.863,0.169 1.201,0.505 0.338,0.338 0.511,0.736 0.511,1.207 l 10e-4,1.723 c -10e-4,0.469 -0.167,0.871 -0.503,1.207 -0.34,0.336 -0.74,0.506 -1.209,0.507 l -4.295,-0.001 c -0.469,0 -0.875,-0.17 -1.207,-0.505 -0.34,-0.334 -0.508,-0.736 -0.507,-1.205 z m 1.563,-1.708 c -0.469,0.119 -0.705,0.4 -0.705,0.844 -0.001,0.236 0.083,0.439 0.251,0.609 0.17,0.168 0.369,0.254 0.602,0.252 l 2.922,0.002 -3.07,-1.707 z m 4.576,1.683 c 0.24,-0.041 0.42,-0.132 0.541,-0.274 0.119,-0.141 0.18,-0.33 0.179,-0.564 0,-0.238 -0.086,-0.441 -0.252,-0.609 -0.17,-0.166 -0.371,-0.249 -0.602,-0.249 l -2.916,-0.002 3.05,1.698 z" />
	<path
   style="fill:#fff806"
   inkscape:connector-curvature="0"
   id="path339"
   d="m 707.538,404.351 -7.719,0.003 -0.005,-4.287 0.859,-0.001 0.003,2.572 2.574,-10e-4 -10e-4,-1.723 0.852,0.003 0.003,1.723 3.432,-0.002 0.002,1.713 z" />
</g><g
     transform="translate(0.213,-0.23901154)"
     id="g341">
	<path
   style="fill:#fff806"
   inkscape:connector-curvature="0"
   id="path343"
   d="m 707.673,317.391 h -7.721 l -10e-4,-4.283 0.861,-0.003 -0.002,2.574 h 2.574 l 0.003,-1.723 0.852,-0.002 -10e-4,1.721 3.436,10e-4 -10e-4,1.715 z" />
	<path
   style="fill:#fff806"
   inkscape:connector-curvature="0"
   id="path345"
   d="m 699.951,307.949 10e-4,-1.715 6.006,0.002 c 0.465,-0.003 0.867,0.167 1.205,0.503 0.34,0.338 0.51,0.737 0.511,1.208 l -10e-4,1.723 c 0,0.469 -0.168,0.872 -0.505,1.208 -0.336,0.334 -0.738,0.5 -1.209,0.505 l -6.008,0.004 -10e-4,-1.715 6.01,-0.004 c 0.229,10e-4 0.43,-0.085 0.598,-0.251 0.17,-0.17 0.255,-0.369 0.253,-0.611 0,-0.238 -0.082,-0.439 -0.252,-0.607 -0.17,-0.168 -0.369,-0.252 -0.598,-0.249 h -6.01 z" />
	<path
   style="fill:#fff806"
   inkscape:connector-curvature="0"
   id="path347"
   d="m 699.949,300.234 h 6.008 c 0.57,-0.003 0.996,0.144 1.284,0.429 0.289,0.289 0.43,0.716 0.43,1.284 l 0.002,1.721 c 0,0.568 -0.146,0.995 -0.433,1.282 -0.285,0.285 -0.715,0.43 -1.283,0.435 l -1.721,-0.003 10e-4,-1.715 1.723,0.001 c 0.232,-0.001 0.434,-0.085 0.602,-0.257 0.163,-0.17 0.249,-0.371 0.251,-0.605 -0.002,-0.234 -0.084,-0.438 -0.252,-0.605 -0.169,-0.17 -0.368,-0.254 -0.603,-0.253 l -6.008,0.002 -0.001,-1.716 z" />
	<path
   style="fill:#fff806"
   inkscape:connector-curvature="0"
   id="path349"
   d="m 707.674,297.658 -7.723,0.004 -0.004,-1.719 7.723,-0.002 0.004,1.717 z" />
</g><g
     transform="translate(0.213,-0.23901154)"
     id="g351">
	<path
   style="fill:#fff806"
   inkscape:connector-curvature="0"
   id="path353"
   d="m 703.571,358.667 c -0.002,-0.572 0.181,-1 0.554,-1.283 0.371,-0.289 0.756,-0.431 1.158,-0.433 h 0.434 c 0.377,0.002 0.76,0.165 1.141,0.495 0.381,0.33 0.571,0.736 0.575,1.219 l -10e-4,1.723 c -0.002,0.482 -0.192,0.887 -0.575,1.215 -0.379,0.332 -0.764,0.497 -1.141,0.499 l -0.434,-0.002 c -0.404,0 -0.787,-0.14 -1.156,-0.425 -0.371,-0.285 -0.557,-0.715 -0.558,-1.289 -0.065,0.57 -0.243,0.996 -0.528,1.284 -0.287,0.287 -0.684,0.432 -1.186,0.432 l -0.434,-0.003 c -0.465,0.002 -0.865,-0.166 -1.205,-0.501 -0.338,-0.338 -0.509,-0.74 -0.509,-1.209 l 0.003,-1.721 c -0.002,-0.471 0.167,-0.871 0.505,-1.209 0.34,-0.341 0.74,-0.507 1.205,-0.505 l 0.438,-0.001 c 0.5,0 0.895,0.143 1.18,0.428 0.287,0.284 0.465,0.714 0.534,1.286 z m -1.287,-10e-4 -0.861,10e-4 c -0.232,0 -0.436,0.084 -0.602,0.256 -0.17,0.168 -0.254,0.369 -0.254,0.605 10e-4,0.234 0.085,0.436 0.255,0.605 0.166,0.168 0.367,0.254 0.6,0.256 l 0.861,-0.003 c 0.232,0 0.434,-0.082 0.605,-0.252 0.17,-0.17 0.254,-0.371 0.253,-0.607 0.002,-0.232 -0.084,-0.436 -0.252,-0.604 -0.174,-0.173 -0.373,-0.257 -0.605,-0.257 z m 3.433,0 h -0.861 c -0.572,-10e-4 -0.859,0.288 -0.861,0.862 10e-4,0.572 0.288,0.855 0.862,0.86 l 0.859,-0.004 c 0.234,0.004 0.432,-0.082 0.604,-0.253 0.164,-0.168 0.248,-0.371 0.247,-0.607 0.002,-0.23 -0.082,-0.434 -0.248,-0.605 -0.168,-0.167 -0.369,-0.251 -0.602,-0.253 z" />
</g><polygon
     transform="translate(0.213,-0.23901154)"
     style="fill:#f9f206"
     id="polygon355"
     points="703.229,379.045 698.94,368 707.518,368 " /><g
     transform="translate(0.213,-0.23901154)"
     id="g357">
	<path
   style="fill:#fff806"
   inkscape:connector-curvature="0"
   id="path359"
   d="m 707.458,275.136 -2.576,-0.001 -0.002,3.438 -0.859,-10e-4 -4.287,-3.433 10e-4,-1.711 4.287,-0.003 -0.001,-0.861 0.861,-0.003 0.001,0.863 2.574,-10e-4 10e-4,1.713 z m -3.438,0.002 h -3.217 l 3.219,2.574 -0.002,-2.574 z" />
	<path
   style="fill:#fff806"
   inkscape:connector-curvature="0"
   id="path361"
   d="m 707.454,269.136 h -6.008 l -0.002,0.861 h -0.852 l -0.858,-1.714 -0.001,-0.857 7.721,-0.004 v 1.714 z" />
	<path
   style="fill:#fff806"
   inkscape:connector-curvature="0"
   id="path363"
   d="m 704.018,260.565 c 0.576,0.06 0.863,0.344 0.861,0.852 l 10e-4,0.857 c 0,0.467 -0.167,0.871 -0.505,1.208 -0.336,0.338 -0.74,0.507 -1.209,0.506 l -1.721,10e-4 c -0.465,-10e-4 -0.869,-0.167 -1.207,-0.504 -0.338,-0.338 -0.505,-0.738 -0.505,-1.208 l -10e-4,-1.722 c -0.002,-0.47 0.169,-0.872 0.505,-1.209 0.336,-0.339 0.742,-0.505 1.209,-0.507 l 3.008,0.002 c 0.816,-0.001 1.521,0.294 2.113,0.882 0.591,0.591 0.886,1.299 0.889,2.124 l -10e-4,1.281 -0.861,0 10e-4,-0.854 c 0,-0.472 -0.169,-0.875 -0.511,-1.209 -0.334,-0.336 -0.738,-0.502 -1.205,-0.504 l -0.861,0.004 z m -2.571,1.71 1.721,0.002 c 0.232,-0.003 0.43,-0.085 0.598,-0.251 0.17,-0.17 0.255,-0.373 0.255,-0.609 0,-0.234 -0.084,-0.435 -0.256,-0.605 -0.168,-0.173 -0.367,-0.255 -0.598,-0.256 l -1.721,0.002 c -0.234,-0.002 -0.434,0.083 -0.602,0.254 -0.168,0.17 -0.25,0.371 -0.252,0.603 0,0.238 0.085,0.44 0.253,0.608 0.17,0.169 0.371,0.255 0.602,0.252 z" />
</g><path
     style="fill:#fff806"
     inkscape:connector-curvature="0"
     id="path365"
     d="m 707.604,497.14699 -7.725,0.003 -10e-4,-4.285 0.861,-0.003 v 2.572 l 2.572,0.003 10e-4,-1.721 0.854,0.001 10e-4,1.721 3.436,-0.002 0.001,1.711 z" /><path
     style="fill:#fff806"
     inkscape:connector-curvature="0"
     id="path367"
     d="m 699.88,487.70399 v -1.709 l 6.008,-0.002 c 0.463,0 0.865,0.167 1.206,0.505 0.338,0.336 0.508,0.738 0.511,1.207 l -10e-4,1.725 c -0.002,0.467 -0.17,0.873 -0.505,1.205 -0.338,0.338 -0.74,0.507 -1.209,0.507 h -6.008 l -0.003,-1.713 h 6.01 c 0.23,0 0.43,-0.084 0.598,-0.253 0.169,-0.168 0.255,-0.373 0.255,-0.611 -0.002,-0.238 -0.086,-0.439 -0.254,-0.607 -0.168,-0.167 -0.367,-0.251 -0.598,-0.249 l -6.01,-0.005 z" /><path
     style="fill:#fff806"
     inkscape:connector-curvature="0"
     id="path369"
     d="m 699.878,479.99299 6.012,0.002 c 0.566,-10e-4 0.994,0.142 1.283,0.427 0.284,0.289 0.427,0.715 0.427,1.283 l 0.002,1.721 c -0.002,0.568 -0.146,0.998 -0.429,1.283 -0.287,0.287 -0.715,0.43 -1.285,0.433 l -1.721,10e-4 0.003,-1.715 1.719,10e-4 c 0.236,-0.002 0.431,-0.086 0.599,-0.257 0.168,-0.172 0.252,-0.375 0.254,-0.605 0,-0.238 -0.084,-0.439 -0.252,-0.605 -0.168,-0.171 -0.368,-0.255 -0.601,-0.253 l -6.008,-0.002 -0.003,-1.714 z" /><path
     style="fill:#fff806"
     inkscape:connector-curvature="0"
     id="path371"
     d="m 707.602,477.41799 -7.723,0.003 -10e-4,-1.719 7.725,-0.001 -10e-4,1.717 z" /><polygon
     transform="translate(0.213,-0.23901154)"
     style="fill:#2d2d2d"
     id="polygon373"
     points="489.78,471.42 690.78,471.404 690.78,521.758 489.78,521.771 " /><path
     style="fill:#fff806"
     inkscape:connector-curvature="0"
     id="path375"
     d="m 262.424,32.377988 -7.721,0 v -4.287 h 0.859 v 2.574 h 2.574 l 0,-1.721 0.853,0 0,1.721 h 3.436 l -0.001,1.713 z" /><path
     style="fill:#fff806"
     inkscape:connector-curvature="0"
     id="path377"
     d="m 254.702,22.936988 0,-1.715 6.01,0 c 0.463,0 0.864,0.168 1.204,0.504 0.339,0.337 0.508,0.74 0.51,1.209 l 0.001,1.721 c 0,0.469 -0.17,0.872 -0.506,1.208 -0.337,0.337 -0.74,0.504 -1.208,0.504 l -6.009,0 -0.001,-1.712 6.01,0 c 0.23,0 0.43,-0.085 0.598,-0.251 0.169,-0.168 0.253,-0.371 0.255,-0.611 -0.002,-0.237 -0.087,-0.441 -0.256,-0.608 -0.168,-0.169 -0.367,-0.252 -0.597,-0.252 l -6.011,0.003 z" /><path
     style="fill:#fff806"
     inkscape:connector-curvature="0"
     id="path379"
     d="m 254.702,15.222988 h 6.01 c 0.568,-0.001 0.994,0.142 1.282,0.43 0.287,0.286 0.431,0.714 0.43,1.283 l 0.001,1.72 c 0,0.568 -0.144,0.996 -0.433,1.284 -0.285,0.286 -0.715,0.43 -1.282,0.431 l -1.722,0 10e-4,-1.713 1.723,0 c 0.232,0 0.434,-0.085 0.6,-0.255 0.167,-0.17 0.251,-0.373 0.251,-0.605 0,-0.235 -0.084,-0.438 -0.251,-0.607 -0.165,-0.17 -0.368,-0.254 -0.599,-0.253 h -6.01 l -0.001,-1.715 z" /><path
     style="fill:#fff806"
     inkscape:connector-curvature="0"
     id="path381"
     d="m 262.424,12.647988 h -7.722 l -0.001,-1.717 7.723,0 0,1.717 z" /></g>
</svg>