<?xml version="1.0" encoding="UTF-8" standalone="no"?>
<!-- Created with Inkscape (http://www.inkscape.org/) -->

<svg
   xmlns:dc="http://purl.org/dc/elements/1.1/"
   xmlns:cc="http://creativecommons.org/ns#"
   xmlns:rdf="http://www.w3.org/1999/02/22-rdf-syntax-ns#"
   xmlns:svg="http://www.w3.org/2000/svg"
   xmlns="http://www.w3.org/2000/svg"
   xmlns:sodipodi="http://sodipodi.sourceforge.net/DTD/sodipodi-0.dtd"
   xmlns:inkscape="http://www.inkscape.org/namespaces/inkscape"
   width="517"
   height="675"
   id="svg3019"
   version="1.1"
   inkscape:version="0.48.3.1 r9886"
   sodipodi:docname="hoja.svg">
  <defs
     id="defs3021" />
  <sodipodi:namedview
     id="base"
     pagecolor="#ffffff"
     bordercolor="#666666"
     borderopacity="1.0"
     inkscape:pageopacity="0.0"
     inkscape:pageshadow="2"
     inkscape:zoom="1.4"
     inkscape:cx="321.33172"
     inkscape:cy="212.98128"
     inkscape:document-units="px"
     inkscape:current-layer="layer1"
     showgrid="false"
     fit-margin-top="0"
     fit-margin-left="0"
     fit-margin-right="0"
     fit-margin-bottom="0"
     inkscape:window-width="1538"
     inkscape:window-height="880"
     inkscape:window-x="59"
     inkscape:window-y="-3"
     inkscape:window-maximized="1" />
  <metadata
     id="metadata3024">
    <rdf:RDF>
      <cc:Work
         rdf:about="">
        <dc:format>image/svg+xml</dc:format>
        <dc:type
           rdf:resource="http://purl.org/dc/dcmitype/StillImage" />
        <dc:title />
      </cc:Work>
    </rdf:RDF>
  </metadata>
  <g
     inkscape:label="Layer 1"
     inkscape:groupmode="layer"
     id="layer1"
     transform="translate(77.57724,-194.65507)">
    <g
       id="g19"
       transform="matrix(0.99980855,0,0,0.99926129,-200.09178,106.5512)">
      <path
         style="fill:#f7f3f7"
         inkscape:connector-curvature="0"
         d="m 122.548,88.169 -0.01,675.489 517.085,0.01 0.014,-675.491 -517.089,-0.008 z m 21.239,660.786 c -5.217,0.002 -9.447,-4.072 -9.445,-9.102 10e-4,-5.023 4.231,-9.098 9.447,-9.096 5.217,0 9.443,4.072 9.443,9.098 0,5.026 -4.229,9.1 -9.445,9.1 z m 0.002,-31.527 c -5.217,-0.004 -9.448,-4.07 -9.449,-9.096 0,-5.023 4.232,-9.096 9.448,-9.098 5.217,0 9.444,4.074 9.442,9.1 0.001,5.027 -4.225,9.098 -9.441,9.094 z m 0,-31.522 c -5.216,0.004 -9.445,-4.07 -9.445,-9.096 0.001,-5.025 4.231,-9.1 9.443,-9.098 5.219,0.002 9.448,4.074 9.446,9.098 -0.001,5.028 -4.227,9.1 -9.444,9.096 z m -10e-4,-31.517 c -5.213,-0.004 -9.444,-4.074 -9.446,-9.098 0,-5.025 4.231,-9.1 9.447,-9.102 5.217,0 9.441,4.074 9.444,9.1 0,5.023 -4.227,9.098 -9.445,9.1 z m 0.004,-31.53 c -5.218,0 -9.451,-4.068 -9.447,-9.1 0.001,-5.021 4.227,-9.092 9.444,-9.094 5.218,-0.002 9.444,4.068 9.445,9.096 0,5.026 -4.227,9.1 -9.442,9.098 z m -0.003,-31.519 c -5.214,-0.004 -9.444,-4.078 -9.448,-9.1 0.005,-5.023 4.233,-9.098 9.45,-9.098 5.216,-0.002 9.442,4.072 9.441,9.098 0.001,5.024 -4.225,9.098 -9.443,9.1 z m 0,-31.52 c -5.213,-0.004 -9.445,-4.078 -9.444,-9.102 -0.003,-5.025 4.23,-9.102 9.448,-9.1 5.213,0.002 9.443,4.072 9.443,9.098 -10e-4,5.028 -4.227,9.1 -9.447,9.104 z m 0.002,-31.525 c -5.214,-0.002 -9.447,-4.074 -9.444,-9.102 -0.001,-5.027 4.228,-9.096 9.443,-9.098 5.219,0 9.445,4.072 9.446,9.098 0.001,5.026 -4.229,9.1 -9.445,9.102 z m 0,-31.527 c -5.216,0.004 -9.448,-4.072 -9.447,-9.094 0.003,-5.023 4.233,-9.102 9.449,-9.1 5.216,-0.002 9.441,4.072 9.444,9.096 -0.003,5.027 -4.229,9.101 -9.446,9.098 z m 0,-31.52 c -5.212,0 -9.445,-4.078 -9.443,-9.1 -0.003,-5.021 4.228,-9.094 9.445,-9.096 5.218,0.002 9.441,4.076 9.445,9.098 -0.002,5.024 -4.229,9.1 -9.447,9.098 z m 0.001,-31.519 c -5.214,-0.006 -9.444,-4.078 -9.445,-9.104 -0.002,-5.023 4.229,-9.096 9.447,-9.096 5.216,0 9.44,4.074 9.443,9.096 -0.002,5.025 -4.227,9.102 -9.445,9.104 z m 0,-31.526 c -5.216,0 -9.445,-4.074 -9.444,-9.102 -0.001,-5.021 4.228,-9.098 9.446,-9.098 5.217,0.002 9.441,4.074 9.442,9.102 0.002,5.022 -4.227,9.096 -9.444,9.098 z m 0.001,-31.525 c -5.214,0.002 -9.443,-4.07 -9.444,-9.096 0,-5.025 4.231,-9.1 9.443,-9.098 5.216,-0.002 9.447,4.07 9.446,9.096 0.002,5.027 -4.228,9.102 -9.445,9.098 z m 0,-31.522 c -5.213,0 -9.444,-4.074 -9.445,-9.1 -0.001,-5.023 4.231,-9.098 9.448,-9.096 5.216,0 9.442,4.072 9.442,9.098 0.001,5.024 -4.226,9.1 -9.445,9.098 z m 0.001,-31.526 c -5.216,0.004 -9.446,-4.071 -9.447,-9.097 0,-5.025 4.234,-9.095 9.447,-9.098 5.217,0 9.447,4.076 9.442,9.099 0.003,5.025 -4.223,9.096 -9.442,9.096 z m 0.002,-31.519 c -5.218,-0.004 -9.447,-4.077 -9.445,-9.101 -0.001,-5.023 4.23,-9.096 9.444,-9.097 5.217,-0.002 9.447,4.073 9.446,9.099 -0.002,5.022 -4.231,9.096 -9.445,9.099 z m 0.002,-31.525 c -5.218,10e-4 -9.448,-4.073 -9.449,-9.098 0,-5.025 4.232,-9.096 9.449,-9.097 5.216,0.001 9.44,4.074 9.442,9.097 -0.002,5.023 -4.226,9.098 -9.442,9.098 z m -0.002,-31.523 c -5.215,0 -9.447,-4.073 -9.443,-9.096 -0.005,-5.027 4.228,-9.101 9.444,-9.1 5.217,0 9.442,4.072 9.443,9.098 0,5.025 -4.226,9.097 -9.444,9.098 z m 0.001,-31.522 c -5.217,-0.001 -9.447,-4.075 -9.443,-9.099 -0.001,-5.023 4.229,-9.095 9.443,-9.096 5.217,0 9.445,4.074 9.444,9.094 0.004,5.029 -4.227,9.098 -9.444,9.101 z m 0.001,-31.521 c -5.215,-0.001 -9.445,-4.076 -9.445,-9.1 -0.001,-5.024 4.229,-9.099 9.448,-9.098 5.215,0 9.441,4.073 9.441,9.099 -0.002,5.022 -4.225,9.097 -9.444,9.099 z m 0.001,-31.525 c -5.216,-0.002 -9.446,-4.075 -9.444,-9.096 -0.002,-5.026 4.226,-9.102 9.445,-9.101 5.216,0 9.44,4.073 9.442,9.098 0,5.025 -4.225,9.099 -9.443,9.099 z"
         id="path21" />
    </g>
  </g>
</svg>
