<?xml version="1.0" encoding="UTF-8" standalone="no"?>
<!-- Created with Inkscape (http://www.inkscape.org/) -->

<svg
   xmlns:dc="http://purl.org/dc/elements/1.1/"
   xmlns:cc="http://creativecommons.org/ns#"
   xmlns:rdf="http://www.w3.org/1999/02/22-rdf-syntax-ns#"
   xmlns:svg="http://www.w3.org/2000/svg"
   xmlns="http://www.w3.org/2000/svg"
   xmlns:sodipodi="http://sodipodi.sourceforge.net/DTD/sodipodi-0.dtd"
   xmlns:inkscape="http://www.inkscape.org/namespaces/inkscape"
   width="204.99989"
   height="100.0001"
   id="svg13009"
   version="1.1"
   inkscape:version="0.48.4 r9939"
   sodipodi:docname="photoroll.svg">
  <defs
     id="defs13011" />
  <sodipodi:namedview
     id="base"
     pagecolor="#ffffff"
     bordercolor="#666666"
     borderopacity="1.0"
     inkscape:pageopacity="0.0"
     inkscape:pageshadow="2"
     inkscape:zoom="1.979899"
     inkscape:cx="114.42477"
     inkscape:cy="19.889424"
     inkscape:document-units="px"
     inkscape:current-layer="layer1"
     showgrid="false"
     inkscape:window-width="1024"
     inkscape:window-height="582"
     inkscape:window-x="0"
     inkscape:window-y="1015"
     inkscape:window-maximized="1"
     fit-margin-top="0"
     fit-margin-left="0"
     fit-margin-right="0"
     fit-margin-bottom="0" />
  <metadata
     id="metadata13014">
    <rdf:RDF>
      <cc:Work
         rdf:about="">
        <dc:format>image/svg+xml</dc:format>
        <dc:type
           rdf:resource="http://purl.org/dc/dcmitype/StillImage" />
        <dc:title />
      </cc:Work>
    </rdf:RDF>
  </metadata>
  <g
     inkscape:label="Layer 1"
     inkscape:groupmode="layer"
     id="layer1"
     transform="translate(-476.88227,-424.1711)">
    <g
       id="g12965"
       transform="matrix(0.86849907,-0.53884506,0.53933202,0.86771491,526.86143,744.11345)">
      <path
         style="fill:#231f20;fill-rule:evenodd;stroke:#231f20;stroke-width:0.21600001;stroke-miterlimit:2.41420007"
         inkscape:connector-curvature="0"
         id="path9738"
         d="m 123.76471,-291.73405 170.133,105.69 -51.531,82.952 -170.133997,-105.69 51.531997,-82.952 0,0 z m -43.670997,73.8 1.873,1.163 c 0.392,0.243 0.515,0.761 0.272,1.152 l -2.421,3.898 c -0.242,0.39 -0.761,0.508 -1.153,0.266 l -1.873,-1.163 c -0.392,-0.244 -0.516,-0.762 -0.273,-1.153 l 2.422,-3.896 c 0.241,-0.392 0.761,-0.512 1.153,-0.267 l 0,0 z m 5.498,3.415 1.872,1.164 c 0.393,0.242 0.516,0.761 0.273,1.152 l -2.421,3.896 c -0.243,0.391 -0.761,0.511 -1.153,0.267 l -1.873,-1.163 c -0.393,-0.244 -0.515,-0.763 -0.273,-1.151 l 2.422,-3.898 c 0.241,-0.392 0.761,-0.51 1.153,-0.267 l 0,0 z m 5.498,3.416 1.872,1.163 c 0.392,0.244 0.515,0.761 0.273,1.151 l -2.422,3.898 c -0.242,0.389 -0.761,0.509 -1.153,0.266 l -1.873,-1.162 c -0.393,-0.244 -0.515,-0.764 -0.273,-1.152 l 2.422,-3.898 c 0.243,-0.391 0.761,-0.511 1.154,-0.266 l 0,0 z m 5.497,3.415 1.873,1.163 c 0.392,0.244 0.515,0.762 0.272,1.152 l -2.421,3.897 c -0.242,0.39 -0.761,0.51 -1.153,0.267 l -1.874,-1.163 c -0.392,-0.243 -0.514,-0.763 -0.272,-1.152 l 2.422,-3.898 c 0.242,-0.391 0.761,-0.511 1.153,-0.266 l 0,0 z m 5.497997,3.416 1.873,1.163 c 0.392,0.243 0.515,0.762 0.272,1.151 l -2.421,3.897 c -0.242,0.391 -0.762,0.512 -1.153,0.268 l -1.873997,-1.163 c -0.392,-0.245 -0.514,-0.763 -0.272,-1.153 l 2.421997,-3.898 c 0.242,-0.39 0.761,-0.51 1.153,-0.265 l 0,0 z m 5.498,3.416 1.872,1.162 c 0.393,0.244 0.516,0.761 0.272,1.151 l -2.42,3.898 c -0.243,0.391 -0.761,0.509 -1.154,0.268 l -1.873,-1.165 c -0.392,-0.243 -0.515,-0.762 -0.272,-1.15 l 2.421,-3.899 c 0.243,-0.391 0.761,-0.51 1.154,-0.265 l 0,0 z m 5.498,3.413 1.872,1.164 c 0.392,0.243 0.516,0.763 0.273,1.151 l -2.421,3.899 c -0.242,0.389 -0.762,0.509 -1.153,0.265 l -1.873,-1.162 c -0.393,-0.245 -0.515,-0.762 -0.272,-1.152 l 2.421,-3.897 c 0.242,-0.391 0.761,-0.511 1.153,-0.268 l 0,0 z m 5.498,3.416 1.872,1.162 c 0.393,0.246 0.515,0.764 0.273,1.153 l -2.421,3.898 c -0.243,0.39 -0.762,0.51 -1.154,0.266 l -1.873,-1.163 c -0.392,-0.243 -0.515,-0.763 -0.273,-1.151 l 2.422,-3.898 c 0.242,-0.39 0.761,-0.511 1.154,-0.267 l 0,0 z m 5.497,3.415 1.873,1.164 c 0.392,0.243 0.515,0.761 0.272,1.151 l -2.421,3.899 c -0.242,0.39 -0.761,0.509 -1.153,0.264 l -1.872,-1.161 c -0.393,-0.245 -0.516,-0.762 -0.273,-1.152 l 2.421,-3.897 c 0.242,-0.392 0.761,-0.511 1.153,-0.268 l 0,0 z m 5.499,3.416 1.872,1.163 c 0.393,0.244 0.515,0.763 0.272,1.152 l -2.421,3.898 c -0.242,0.391 -0.761,0.51 -1.153,0.266 l -1.873,-1.164 c -0.393,-0.243 -0.516,-0.763 -0.273,-1.15 l 2.422,-3.899 c 0.242,-0.39 0.761,-0.511 1.154,-0.266 l 0,0 z m 5.497,3.415 1.873,1.163 c 0.392,0.243 0.515,0.764 0.272,1.152 l -2.421,3.898 c -0.242,0.391 -0.761,0.509 -1.154,0.266 l -1.873,-1.162 c -0.393,-0.245 -0.515,-0.763 -0.272,-1.152 l 2.421,-3.898 c 0.243,-0.391 0.762,-0.51 1.154,-0.267 l 0,0 z m 5.498,3.416 1.872,1.162 c 0.393,0.244 0.515,0.764 0.272,1.153 l -2.421,3.896 c -0.243,0.391 -0.761,0.511 -1.153,0.268 l -1.874,-1.164 c -0.392,-0.243 -0.514,-0.762 -0.272,-1.153 l 2.421,-3.896 c 0.244,-0.391 0.763,-0.51 1.155,-0.266 l 0,0 z m 5.498,3.415 1.873,1.164 c 0.392,0.243 0.516,0.76 0.272,1.151 l -2.421,3.897 c -0.242,0.39 -0.761,0.51 -1.153,0.267 l -1.874,-1.163 c -0.392,-0.244 -0.514,-0.762 -0.272,-1.152 l 2.422,-3.897 c 0.242,-0.391 0.761,-0.51 1.153,-0.267 l 0,0 z m 5.498,3.415 1.872,1.164 c 0.393,0.242 0.516,0.761 0.273,1.152 l -2.421,3.896 c -0.243,0.391 -0.761,0.511 -1.154,0.268 l -1.873,-1.164 c -0.392,-0.243 -0.514,-0.763 -0.272,-1.151 l 2.422,-3.898 c 0.241,-0.391 0.76,-0.509 1.153,-0.267 l 0,0 z m 5.497,3.415 1.872,1.165 c 0.393,0.242 0.515,0.76 0.273,1.15 l -2.422,3.899 c -0.242,0.39 -0.762,0.508 -1.154,0.266 l -1.872,-1.165 c -0.392,-0.242 -0.515,-0.76 -0.272,-1.151 l 2.422,-3.896 c 0.243,-0.391 0.761,-0.511 1.153,-0.268 l 0,0 z m 5.498,3.416 1.872,1.163 c 0.393,0.243 0.516,0.762 0.273,1.152 l -2.421,3.897 c -0.243,0.39 -0.763,0.511 -1.154,0.267 l -1.873,-1.163 c -0.392,-0.243 -0.515,-0.763 -0.273,-1.153 l 2.421,-3.897 c 0.244,-0.391 0.763,-0.509 1.155,-0.266 l 0,0 z m 5.498,3.416 1.873,1.162 c 0.392,0.245 0.515,0.762 0.272,1.152 l -2.422,3.899 c -0.242,0.39 -0.761,0.508 -1.153,0.265 l -1.873,-1.162 c -0.392,-0.245 -0.515,-0.764 -0.272,-1.153 l 2.421,-3.896 c 0.243,-0.391 0.762,-0.512 1.154,-0.267 l 0,0 z m 5.498,3.415 1.872,1.163 c 0.393,0.243 0.515,0.762 0.272,1.152 l -2.421,3.897 c -0.243,0.39 -0.761,0.51 -1.153,0.267 l -1.873,-1.163 c -0.393,-0.244 -0.516,-0.763 -0.273,-1.152 l 2.422,-3.899 c 0.242,-0.39 0.762,-0.51 1.154,-0.265 l 0,0 z m 5.498,3.415 1.873,1.163 c 0.392,0.244 0.514,0.762 0.272,1.151 l -2.421,3.899 c -0.243,0.391 -0.762,0.509 -1.153,0.266 l -1.873,-1.162 c -0.393,-0.246 -0.516,-0.764 -0.273,-1.153 l 2.422,-3.899 c 0.241,-0.389 0.76,-0.509 1.153,-0.265 l 0,0 z m 5.498,3.415 1.873,1.163 c 0.392,0.245 0.514,0.763 0.272,1.152 l -2.421,3.898 c -0.242,0.39 -0.761,0.511 -1.153,0.266 l -1.873,-1.162 c -0.393,-0.245 -0.515,-0.764 -0.273,-1.152 l 2.422,-3.898 c 0.241,-0.391 0.76,-0.511 1.153,-0.267 l 0,0 z m 5.498,3.415 1.872,1.164 c 0.392,0.243 0.515,0.763 0.273,1.152 l -2.422,3.897 c -0.242,0.391 -0.761,0.51 -1.153,0.267 l -1.873,-1.163 c -0.393,-0.244 -0.515,-0.762 -0.273,-1.152 l 2.421,-3.898 c 0.243,-0.39 0.762,-0.51 1.155,-0.267 l 0,0 z m 5.497,3.416 1.873,1.163 c 0.393,0.243 0.516,0.762 0.272,1.152 l -2.421,3.898 c -0.242,0.391 -0.761,0.51 -1.153,0.266 l -1.873,-1.163 c -0.393,-0.244 -0.515,-0.762 -0.273,-1.15 l 2.421,-3.899 c 0.243,-0.391 0.762,-0.511 1.154,-0.267 l 0,0 z m 5.498,3.414 1.872,1.165 c 0.393,0.243 0.516,0.763 0.273,1.151 l -2.421,3.898 c -0.242,0.39 -0.761,0.51 -1.155,0.266 l -1.872,-1.163 c -0.392,-0.243 -0.514,-0.761 -0.271,-1.152 l 2.42,-3.896 c 0.243,-0.391 0.762,-0.511 1.154,-0.269 l 0,0 z m 5.498,3.417 1.872,1.162 c 0.393,0.244 0.516,0.763 0.273,1.153 l -2.421,3.897 c -0.243,0.391 -0.761,0.509 -1.154,0.266 l -1.874,-1.163 c -0.392,-0.242 -0.514,-0.761 -0.271,-1.15 l 2.421,-3.898 c 0.243,-0.391 0.762,-0.511 1.154,-0.267 l 0,0 z m 5.498,3.415 1.872,1.163 c 0.393,0.243 0.516,0.764 0.273,1.152 l -2.421,3.898 c -0.243,0.389 -0.761,0.508 -1.154,0.265 l -1.872,-1.161 c -0.392,-0.245 -0.515,-0.763 -0.272,-1.153 l 2.422,-3.896 c 0.241,-0.39 0.76,-0.511 1.152,-0.268 l 0,0 z m 5.498,3.416 1.872,1.162 c 0.393,0.243 0.515,0.763 0.273,1.153 l -2.421,3.897 c -0.243,0.39 -0.762,0.509 -1.154,0.267 l -1.873,-1.164 c -0.392,-0.243 -0.515,-0.762 -0.273,-1.153 l 2.421,-3.896 c 0.243,-0.391 0.763,-0.51 1.155,-0.266 l 0,0 z m 5.497,3.415 1.872,1.163 c 0.393,0.243 0.515,0.761 0.273,1.151 l -2.422,3.898 c -0.242,0.391 -0.761,0.51 -1.152,0.266 l -1.873,-1.162 c -0.392,-0.245 -0.515,-0.763 -0.273,-1.152 l 2.422,-3.897 c 0.243,-0.392 0.761,-0.509 1.153,-0.267 l 0,0 z m 5.498,3.416 1.873,1.162 c 0.392,0.244 0.514,0.763 0.272,1.152 l -2.422,3.897 c -0.242,0.391 -0.761,0.511 -1.153,0.268 l -1.873,-1.164 c -0.393,-0.243 -0.516,-0.763 -0.273,-1.153 l 2.422,-3.897 c 0.243,-0.391 0.762,-0.51 1.154,-0.265 l 0,0 z m 5.498,3.415 1.873,1.164 c 0.392,0.242 0.514,0.76 0.271,1.15 l -2.421,3.898 c -0.243,0.39 -0.762,0.51 -1.153,0.267 l -1.873,-1.163 c -0.393,-0.244 -0.515,-0.762 -0.272,-1.152 l 2.422,-3.899 c 0.242,-0.39 0.761,-0.509 1.153,-0.265 l 0,0 z m 5.498,3.416 1.873,1.162 c 0.392,0.245 0.514,0.763 0.272,1.152 l -2.421,3.897 c -0.242,0.391 -0.761,0.511 -1.153,0.268 l -1.874,-1.164 c -0.392,-0.244 -0.515,-0.763 -0.272,-1.151 l 2.421,-3.899 c 0.242,-0.39 0.761,-0.511 1.154,-0.265 l 0,0 z m 5.498,3.414 1.872,1.164 c 0.392,0.244 0.514,0.761 0.273,1.15 l -2.422,3.899 c -0.242,0.391 -0.761,0.51 -1.154,0.267 l -1.872,-1.163 c -0.393,-0.245 -0.516,-0.763 -0.273,-1.152 l 2.422,-3.898 c 0.242,-0.391 0.762,-0.51 1.154,-0.267 l 0,0 z m -8.147,-90.61 3.803,2.363 -1.581,1.351 0.784,3.189 3.873,-2.629 2.133,1.325 -1.727,1.178 -1.874,2.141 -0.601,-0.809 -2.08,1.776 -5.408,-7.273 2.678,-2.612 0,0 z m -114.531,-79.873 1.872,1.163 c 0.393,0.242 0.515,0.762 0.272,1.151 l -2.421,3.897 c -0.242,0.391 -0.761,0.51 -1.154,0.267 l -1.873,-1.163 c -0.392,-0.244 -0.515,-0.762 -0.272,-1.153 l 2.421,-3.896 c 0.244,-0.391 0.764,-0.509 1.155,-0.266 l 0,0 z m 5.498,3.415 1.873,1.164 c 0.392,0.243 0.514,0.761 0.272,1.15 l -2.421,3.896 c -0.243,0.391 -0.761,0.511 -1.153,0.268 l -1.873,-1.164 c -0.393,-0.243 -0.515,-0.761 -0.273,-1.151 l 2.422,-3.896 c 0.241,-0.391 0.761,-0.511 1.153,-0.267 l 0,0 z m 5.498,3.416 1.873,1.162 c 0.392,0.244 0.514,0.762 0.273,1.152 l -2.422,3.897 c -0.242,0.391 -0.761,0.51 -1.153,0.267 l -1.873,-1.163 c -0.393,-0.244 -0.515,-0.764 -0.273,-1.152 l 2.422,-3.897 c 0.241,-0.392 0.76,-0.51 1.153,-0.266 l 0,0 z m 5.498,3.414 1.873,1.164 c 0.392,0.244 0.515,0.762 0.273,1.151 l -2.421,3.898 c -0.242,0.389 -0.761,0.51 -1.153,0.266 l -1.874,-1.164 c -0.392,-0.242 -0.514,-0.762 -0.272,-1.151 l 2.421,-3.898 c 0.241,-0.389 0.76,-0.509 1.153,-0.266 l 0,0 z m 5.497,3.417 1.873,1.163 c 0.392,0.242 0.515,0.761 0.273,1.15 l -2.422,3.897 c -0.242,0.391 -0.761,0.511 -1.153,0.269 l -1.874,-1.165 c -0.392,-0.243 -0.514,-0.762 -0.272,-1.152 l 2.422,-3.897 c 0.242,-0.391 0.761,-0.51 1.153,-0.265 l 0,0 z m 5.498,3.415 1.872,1.163 c 0.393,0.244 0.516,0.762 0.273,1.15 l -2.421,3.898 c -0.242,0.391 -0.761,0.51 -1.154,0.266 l -1.873,-1.163 c -0.392,-0.243 -0.514,-0.762 -0.271,-1.151 l 2.421,-3.899 c 0.243,-0.388 0.761,-0.509 1.153,-0.264 l 0,0 z m 5.498,3.415 1.872,1.162 c 0.392,0.244 0.516,0.763 0.273,1.152 l -2.421,3.898 c -0.243,0.389 -0.762,0.51 -1.154,0.267 l -1.873,-1.164 c -0.392,-0.244 -0.514,-0.763 -0.271,-1.152 l 2.421,-3.897 c 0.242,-0.39 0.761,-0.51 1.153,-0.266 l 0,0 z m 5.498,3.414 1.872,1.164 c 0.393,0.244 0.516,0.762 0.273,1.151 l -2.421,3.898 c -0.243,0.39 -0.763,0.51 -1.154,0.266 l -1.873,-1.161 c -0.392,-0.246 -0.515,-0.764 -0.273,-1.153 l 2.422,-3.899 c 0.242,-0.39 0.762,-0.508 1.154,-0.266 l 0,0 z m 5.498,3.417 1.872,1.162 c 0.392,0.244 0.515,0.763 0.273,1.151 l -2.421,3.899 c -0.243,0.389 -0.762,0.51 -1.153,0.265 l -1.873,-1.163 c -0.392,-0.243 -0.515,-0.762 -0.273,-1.152 l 2.422,-3.897 c 0.241,-0.39 0.761,-0.51 1.153,-0.265 l 0,0 z m 5.497,3.414 1.873,1.164 c 0.392,0.243 0.515,0.762 0.272,1.15 l -2.421,3.899 c -0.242,0.39 -0.761,0.509 -1.152,0.266 l -1.873,-1.163 c -0.393,-0.244 -0.516,-0.762 -0.273,-1.152 l 2.422,-3.898 c 0.241,-0.389 0.76,-0.508 1.152,-0.266 l 0,0 z m 5.498,3.415 1.873,1.163 c 0.392,0.244 0.514,0.764 0.272,1.152 l -2.421,3.898 c -0.242,0.391 -0.761,0.509 -1.153,0.267 l -1.872,-1.164 c -0.394,-0.243 -0.516,-0.762 -0.274,-1.152 l 2.422,-3.897 c 0.242,-0.389 0.761,-0.511 1.153,-0.267 l 0,0 z m 5.498,3.416 1.873,1.164 c 0.392,0.243 0.514,0.762 0.272,1.15 l -2.421,3.899 c -0.242,0.389 -0.761,0.508 -1.154,0.265 l -1.873,-1.164 c -0.392,-0.242 -0.515,-0.76 -0.272,-1.15 l 2.421,-3.898 c 0.243,-0.389 0.762,-0.509 1.154,-0.266 l 0,0 z m 5.498,3.415 1.873,1.164 c 0.392,0.242 0.514,0.762 0.272,1.152 l -2.421,3.896 c -0.242,0.392 -0.761,0.511 -1.154,0.267 l -1.874,-1.162 c -0.392,-0.244 -0.514,-0.762 -0.271,-1.153 l 2.421,-3.896 c 0.243,-0.391 0.762,-0.511 1.154,-0.268 l 0,0 z m 5.498,3.416 1.872,1.163 c 0.393,0.244 0.515,0.761 0.273,1.152 l -2.421,3.897 c -0.243,0.39 -0.761,0.509 -1.154,0.266 l -1.874,-1.164 c -0.392,-0.243 -0.514,-0.761 -0.271,-1.151 l 2.421,-3.897 c 0.242,-0.39 0.761,-0.51 1.154,-0.266 l 0,0 z m 5.498,3.415 1.872,1.165 c 0.392,0.242 0.515,0.762 0.273,1.151 l -2.421,3.897 c -0.242,0.39 -0.762,0.51 -1.154,0.266 l -1.873,-1.163 c -0.392,-0.243 -0.515,-0.762 -0.272,-1.151 l 2.422,-3.898 c 0.241,-0.391 0.761,-0.51 1.153,-0.267 l 0,0 z m 5.498,3.417 1.872,1.163 c 0.393,0.244 0.516,0.761 0.274,1.151 l -2.421,3.898 c -0.242,0.39 -0.762,0.509 -1.154,0.267 l -1.873,-1.165 c -0.392,-0.242 -0.515,-0.762 -0.272,-1.151 l 2.422,-3.898 c 0.241,-0.39 0.759,-0.509 1.152,-0.265 l 0,0 z m 5.497,3.416 1.873,1.163 c 0.393,0.243 0.514,0.762 0.273,1.149 l -2.421,3.899 c -0.242,0.39 -0.762,0.511 -1.153,0.267 l -1.873,-1.163 c -0.391,-0.244 -0.515,-0.763 -0.272,-1.153 l 2.422,-3.898 c 0.241,-0.39 0.759,-0.51 1.151,-0.264 l 0,0 z m 5.498,3.415 1.872,1.163 c 0.393,0.244 0.515,0.761 0.273,1.151 l -2.421,3.896 c -0.242,0.391 -0.762,0.511 -1.153,0.268 l -1.873,-1.163 c -0.393,-0.244 -0.515,-0.763 -0.273,-1.152 l 2.422,-3.899 c 0.242,-0.388 0.761,-0.509 1.153,-0.264 l 0,0 z m 5.498,3.414 1.872,1.164 c 0.392,0.243 0.514,0.763 0.273,1.151 l -2.422,3.898 c -0.242,0.39 -0.761,0.51 -1.153,0.267 l -1.873,-1.164 c -0.394,-0.244 -0.515,-0.763 -0.273,-1.151 l 2.422,-3.898 c 0.243,-0.39 0.762,-0.511 1.154,-0.267 l 0,0 z m 5.498,3.416 1.873,1.163 c 0.392,0.245 0.514,0.763 0.273,1.15 l -2.422,3.898 c -0.242,0.39 -0.761,0.511 -1.153,0.267 l -1.873,-1.162 c -0.393,-0.245 -0.516,-0.763 -0.273,-1.152 l 2.422,-3.899 c 0.241,-0.389 0.76,-0.509 1.153,-0.265 l 0,0 z m 5.498,3.415 1.873,1.163 c 0.392,0.244 0.514,0.762 0.273,1.152 l -2.422,3.898 c -0.243,0.39 -0.761,0.509 -1.153,0.265 l -1.872,-1.163 c -0.394,-0.243 -0.516,-0.762 -0.274,-1.152 l 2.422,-3.896 c 0.242,-0.391 0.76,-0.51 1.153,-0.267 l 0,0 z m 5.497,3.415 1.873,1.164 c 0.392,0.243 0.515,0.762 0.272,1.151 l -2.421,3.898 c -0.242,0.39 -0.761,0.51 -1.154,0.266 l -1.873,-1.164 c -0.392,-0.244 -0.515,-0.761 -0.273,-1.15 l 2.422,-3.899 c 0.243,-0.388 0.762,-0.509 1.154,-0.266 l 0,0 z m 5.499,3.415 1.873,1.164 c 0.392,0.243 0.515,0.763 0.272,1.152 l -2.421,3.898 c -0.242,0.39 -0.761,0.509 -1.154,0.266 l -1.871,-1.164 c -0.393,-0.243 -0.515,-0.762 -0.273,-1.151 l 2.422,-3.897 c 0.24,-0.391 0.759,-0.511 1.152,-0.268 l 0,0 z m 5.498,3.416 1.872,1.164 c 0.393,0.243 0.515,0.762 0.273,1.151 l -2.421,3.898 c -0.242,0.39 -0.761,0.509 -1.154,0.266 l -1.873,-1.164 c -0.392,-0.243 -0.515,-0.76 -0.272,-1.15 l 2.42,-3.899 c 0.243,-0.389 0.762,-0.508 1.155,-0.266 l 0,0 z m 5.497,3.417 1.872,1.162 c 0.392,0.244 0.515,0.763 0.273,1.152 l -2.42,3.896 c -0.243,0.392 -0.762,0.51 -1.154,0.266 l -1.873,-1.162 c -0.392,-0.243 -0.514,-0.762 -0.272,-1.152 l 2.422,-3.897 c 0.241,-0.389 0.76,-0.51 1.152,-0.265 l 0,0 z m 5.498,3.414 1.872,1.164 c 0.393,0.242 0.516,0.762 0.273,1.151 l -2.421,3.896 c -0.242,0.391 -0.762,0.51 -1.154,0.267 l -1.874,-1.162 c -0.392,-0.244 -0.515,-0.762 -0.272,-1.153 l 2.422,-3.897 c 0.242,-0.39 0.762,-0.508 1.154,-0.266 l 0,0 z m 5.498,3.417 1.872,1.162 c 0.393,0.243 0.515,0.762 0.273,1.152 l -2.422,3.896 c -0.243,0.391 -0.762,0.512 -1.153,0.269 l -1.873,-1.164 c -0.391,-0.242 -0.515,-0.764 -0.272,-1.153 l 2.422,-3.897 c 0.241,-0.391 0.761,-0.509 1.153,-0.265 l 0,0 z m 5.497,3.415 1.872,1.163 c 0.393,0.243 0.516,0.76 0.273,1.15 l -2.422,3.898 c -0.242,0.389 -0.761,0.509 -1.153,0.267 l -1.873,-1.165 c -0.393,-0.242 -0.515,-0.761 -0.273,-1.15 l 2.422,-3.899 c 0.244,-0.389 0.762,-0.508 1.154,-0.264 l 0,0 z m 5.498,3.413 1.873,1.165 c 0.393,0.242 0.515,0.761 0.273,1.149 l -2.422,3.899 c -0.242,0.39 -0.76,0.51 -1.152,0.266 l -1.874,-1.163 c -0.392,-0.243 -0.514,-0.762 -0.272,-1.152 l 2.422,-3.897 c 0.242,-0.39 0.76,-0.51 1.152,-0.267 l 0,0 z m 5.498,3.417 1.873,1.164 c 0.392,0.243 0.514,0.76 0.272,1.149 l -2.421,3.898 c -0.242,0.391 -0.761,0.51 -1.153,0.268 l -1.873,-1.165 c -0.392,-0.243 -0.515,-0.763 -0.272,-1.151 l 2.421,-3.898 c 0.242,-0.389 0.761,-0.51 1.153,-0.265 l 0,0 z m 5.498,3.415 1.873,1.163 c 0.392,0.244 0.514,0.763 0.272,1.151 l -2.421,3.898 c -0.243,0.39 -0.761,0.511 -1.154,0.265 l -1.872,-1.161 c -0.393,-0.244 -0.515,-0.763 -0.273,-1.153 l 2.422,-3.897 c 0.242,-0.39 0.761,-0.51 1.153,-0.266 l 0,0 z"
         stroke-miterlimit="2.4142"
         clip-rule="evenodd" />
      <polygon
         transform="translate(-26.966287,-595.95505)"
         style="fill:#5e4b4b;fill-rule:evenodd"
         id="polygon9740"
         points="225.928,366.317 188.186,427.072 111.216,379.257 148.959,318.502 148.959,318.502 "
         clip-rule="evenodd" />
      <path
         style="fill:#d3c095;fill-rule:evenodd"
         inkscape:connector-curvature="0"
         id="path9742"
         d="m 184.31271,-154.53705 -0.799,-0.496 1.254,-2.02 -1.104,-1.99 1.458,-2.349 c 0.971,-1.562 1.613,-0.904 2.987,-0.097 l -3.796,6.952 0,0 z"
         clip-rule="evenodd" />
      <path
         style="fill:#ffffff"
         inkscape:connector-curvature="0"
         id="path9744"
         d="m 144.53871,-165.59405 0.333,-0.535 1.522,0.22 -0.875,-1.262 0.331,-0.533 1.203,1.89 -0.283,0.456 -2.231,-0.236 0,0 z m 2.039,1.268 0.333,-0.537 1.522,0.222 -0.875,-1.262 0.331,-0.533 1.203,1.889 -0.283,0.456 -2.231,-0.235 0,0 z m 5.344,-0.114 c 0.243,0.152 0.373,0.365 0.388,0.642 0.021,0.327 -0.131,0.757 -0.459,1.283 -0.327,0.525 -0.644,0.854 -0.95,0.983 -0.253,0.105 -0.5,0.081 -0.742,-0.068 -0.243,-0.151 -0.374,-0.378 -0.394,-0.679 -0.02,-0.299 0.136,-0.717 0.467,-1.25 0.326,-0.524 0.641,-0.849 0.947,-0.978 0.253,-0.104 0.501,-0.084 0.743,0.067 l 0,0 z m -0.274,0.442 c -0.057,-0.036 -0.122,-0.047 -0.193,-0.035 -0.072,0.015 -0.153,0.065 -0.244,0.156 -0.119,0.117 -0.28,0.339 -0.482,0.665 -0.203,0.326 -0.327,0.56 -0.374,0.699 -0.046,0.142 -0.06,0.246 -0.041,0.315 0.021,0.067 0.059,0.119 0.117,0.156 0.058,0.035 0.123,0.047 0.193,0.032 0.071,-0.011 0.152,-0.062 0.243,-0.154 0.118,-0.117 0.279,-0.336 0.481,-0.663 0.203,-0.326 0.327,-0.561 0.374,-0.701 0.046,-0.138 0.06,-0.243 0.041,-0.312 -0.019,-0.071 -0.057,-0.123 -0.115,-0.158 l 0,0 z m 2.216,0.765 c 0.242,0.149 0.372,0.364 0.388,0.641 0.021,0.327 -0.132,0.757 -0.459,1.283 -0.327,0.526 -0.644,0.854 -0.95,0.984 -0.252,0.104 -0.5,0.082 -0.743,-0.069 -0.242,-0.15 -0.374,-0.378 -0.394,-0.678 -0.021,-0.3 0.136,-0.717 0.467,-1.25 0.326,-0.525 0.642,-0.849 0.949,-0.979 0.253,-0.105 0.5,-0.084 0.742,0.068 l 0,0 z m -0.275,0.442 c -0.057,-0.037 -0.122,-0.048 -0.193,-0.035 -0.071,0.013 -0.151,0.063 -0.243,0.154 -0.118,0.119 -0.279,0.339 -0.481,0.667 -0.203,0.325 -0.327,0.559 -0.374,0.699 -0.046,0.141 -0.059,0.245 -0.04,0.313 0.021,0.067 0.06,0.12 0.117,0.157 0.058,0.034 0.123,0.048 0.193,0.033 0.07,-0.013 0.152,-0.063 0.243,-0.154 0.118,-0.117 0.279,-0.339 0.481,-0.664 0.202,-0.327 0.327,-0.561 0.374,-0.7 0.046,-0.139 0.059,-0.245 0.04,-0.313 -0.021,-0.07 -0.059,-0.122 -0.117,-0.157 l 0,0 z m 0.114,2.306 0.501,0.224 c -0.067,0.142 -0.089,0.268 -0.067,0.375 0.022,0.11 0.078,0.195 0.17,0.252 0.099,0.062 0.208,0.07 0.328,0.029 0.12,-0.042 0.223,-0.133 0.312,-0.274 0.083,-0.134 0.117,-0.26 0.1,-0.379 -0.015,-0.121 -0.07,-0.207 -0.164,-0.266 -0.061,-0.038 -0.142,-0.07 -0.244,-0.097 l 0.323,-0.399 c 0.128,0.083 0.246,0.112 0.354,0.089 0.11,-0.024 0.199,-0.091 0.268,-0.202 0.059,-0.093 0.079,-0.183 0.064,-0.269 -0.016,-0.087 -0.065,-0.157 -0.148,-0.208 -0.081,-0.051 -0.172,-0.062 -0.269,-0.034 -0.097,0.026 -0.189,0.097 -0.277,0.209 l -0.39,-0.356 c 0.135,-0.149 0.264,-0.255 0.389,-0.317 0.125,-0.062 0.26,-0.087 0.406,-0.075 0.147,0.011 0.289,0.059 0.426,0.144 0.236,0.147 0.373,0.348 0.411,0.602 0.032,0.211 -0.005,0.401 -0.112,0.572 -0.152,0.244 -0.393,0.365 -0.723,0.361 0.122,0.124 0.188,0.271 0.201,0.444 0.012,0.17 -0.034,0.342 -0.139,0.51 -0.152,0.244 -0.361,0.402 -0.628,0.475 -0.266,0.072 -0.519,0.033 -0.757,-0.114 -0.227,-0.143 -0.369,-0.33 -0.428,-0.566 -0.059,-0.236 -0.029,-0.481 0.093,-0.73 l 0,0 z" />
      <path
         style="fill:#ffffff"
         inkscape:connector-curvature="0"
         id="path9746"
         d="m 226.67371,-114.57105 0.333,-0.534 1.523,0.219 -0.875,-1.261 0.33,-0.533 1.204,1.891 -0.283,0.454 -2.232,-0.236 0,0 z m 2.038,1.267 0.333,-0.534 1.522,0.219 -0.875,-1.262 0.331,-0.533 1.203,1.891 -0.283,0.455 -2.231,-0.236 0,0 z m 5.344,-0.114 c 0.243,0.153 0.372,0.366 0.389,0.643 0.021,0.328 -0.133,0.755 -0.46,1.284 -0.327,0.525 -0.644,0.854 -0.951,0.983 -0.252,0.104 -0.499,0.08 -0.742,-0.069 -0.243,-0.151 -0.374,-0.377 -0.394,-0.679 -0.02,-0.299 0.137,-0.716 0.468,-1.25 0.326,-0.524 0.642,-0.849 0.948,-0.978 0.252,-0.106 0.5,-0.084 0.742,0.066 l 0,0 z m -0.274,0.442 c -0.058,-0.035 -0.123,-0.047 -0.193,-0.034 -0.071,0.014 -0.152,0.064 -0.244,0.155 -0.118,0.118 -0.278,0.34 -0.481,0.665 -0.203,0.328 -0.327,0.562 -0.374,0.7 -0.046,0.142 -0.059,0.246 -0.04,0.314 0.021,0.068 0.059,0.12 0.116,0.156 0.058,0.035 0.124,0.048 0.195,0.034 0.07,-0.012 0.152,-0.063 0.242,-0.155 0.118,-0.117 0.278,-0.338 0.481,-0.664 0.202,-0.325 0.327,-0.559 0.374,-0.7 0.045,-0.14 0.059,-0.244 0.04,-0.312 -0.02,-0.07 -0.059,-0.123 -0.116,-0.159 l 0,0 z m 2.215,0.767 c 0.244,0.15 0.373,0.363 0.39,0.64 0.021,0.328 -0.132,0.756 -0.46,1.283 -0.327,0.526 -0.645,0.855 -0.951,0.982 -0.253,0.106 -0.5,0.083 -0.742,-0.067 -0.242,-0.15 -0.375,-0.377 -0.393,-0.679 -0.02,-0.298 0.135,-0.715 0.467,-1.25 0.325,-0.523 0.641,-0.848 0.948,-0.978 0.252,-0.106 0.5,-0.083 0.741,0.069 l 0,0 z m -0.274,0.44 c -0.058,-0.035 -0.122,-0.046 -0.194,-0.033 -0.07,0.013 -0.152,0.064 -0.243,0.154 -0.119,0.118 -0.28,0.34 -0.482,0.665 -0.203,0.327 -0.326,0.562 -0.373,0.7 -0.045,0.142 -0.06,0.245 -0.04,0.314 0.02,0.068 0.058,0.12 0.116,0.156 0.059,0.035 0.124,0.049 0.195,0.034 0.071,-0.013 0.152,-0.063 0.243,-0.155 0.118,-0.116 0.278,-0.338 0.481,-0.663 0.202,-0.325 0.327,-0.562 0.373,-0.7 0.046,-0.14 0.06,-0.245 0.041,-0.312 -0.02,-0.072 -0.059,-0.124 -0.117,-0.16 l 0,0 z m 0.611,3.637 0.347,-0.559 -1.022,-0.636 0.29,-0.467 2.182,-1.093 0.402,0.25 -1.096,1.764 0.311,0.194 -0.291,0.468 -0.311,-0.192 -0.347,0.558 -0.465,-0.287 0,0 z m 0.638,-1.027 0.591,-0.951 -1.166,0.594 0.575,0.357 0,0 z" />
      <polygon
         transform="translate(-26.966287,-595.95505)"
         style="fill:#5e4b4b;fill-rule:evenodd"
         id="polygon9748"
         points="307.593,415.651 269.851,476.406 192.881,428.591 230.625,367.836 230.625,367.836 "
         clip-rule="evenodd" />
    </g>
  </g>
</svg>
